<?xml version="1.0" encoding="utf-8"?>
<svg id="master-artboard" viewBox="0 0 1400 980" version="1.1" xmlns="http://www.w3.org/2000/svg" x="0px" y="0px" width="1400px" height="980px" enable-background="new 0 0 1400 980">
<radialGradient id="SVGID_1_" cx="235.1137" cy="83.6108" r="1092.4274" gradientUnits="userSpaceOnUse">
		<stop offset="0" style="stop-color:#50AEC7"/>
		<stop offset="1" style="stop-color:#3D51A0"/>
	</radialGradient><path d="M 0 1 H 1400 V 981 H 0 V 1 Z" fill-rule="evenodd" clip-rule="evenodd" fill="url(#SVGID_1_)" transform="matrix(0.9999999999999999, 0, 0, 0.9999999999999999, -2.842170943040401e-14, 0)"/><linearGradient id="SVGID_2_" gradientUnits="userSpaceOnUse" x1="753.3588" y1="341.5899" x2="861.3534" y2="907.0616">
		<stop offset="0" style="stop-color:#3B64C6"/>
		<stop offset="1" style="stop-color:#092DC6;stop-opacity:0"/>
	</linearGradient><path d="M 216 618.4000244140625 L 423.8999938964844 981 L 1400 981 L 1400 637 L 698 338.8999938964844 Z" fill-rule="evenodd" clip-rule="evenodd" fill="url(#SVGID_2_)" transform="matrix(0.9999999999999999, 0, 0, 0.9999999999999999, -2.842170943040401e-14, 0)"/>
<path d="M 1161 605.7000122070312 L 699.5 872.2999877929688 L 237.89999389648438 605.7000122070312 L 699.5 339.20001220703125 Z" fill-rule="evenodd" clip-rule="evenodd" fill="#F9B955" transform="matrix(0.9999999999999999, 0, 0, 0.9999999999999999, -2.842170943040401e-14, 0)"/><path fill-rule="evenodd" clip-rule="evenodd" fill="#EBAB44" d="M1161,605.7l-1.8,1.1c-6.6-2.8-14.2-6.3-23.1-10.9&#10;&#9;&#9;c-4.8-2.5-11.8-5.3-19.5-8.3c-4.7-1.9-9.6-3.9-14.5-5.9c-21.3-9-42.9-20.4-43.6-35.1l2,1.2c1.8,13.2,22.2,23.7,42.3,32.2&#10;&#9;&#9;c4.9,2.1,9.9,4.1,14.5,5.9c7.8,3.1,14.8,5.9,19.7,8.4c8.7,4.5,16.1,7.9,22.7,10.7L1161,605.7z M1141.1,617.3l-2.1,1.2&#10;&#9;&#9;c-5.6-2.1-9.5-3.5-10.6-4.1c-21.7-11.7-55.5-26.2-88.9-40.5c-44.1-18.9-87.6-37.5-102.4-49.4c-31.1-25-53.1-36.1-74.7-47.1&#10;&#9;&#9;c-13.6-6.9-27.1-13.7-42.5-23.8l-2.5-1.6c-12.5-8.2-31.5-24.5-52.5-42.5c-25.9-22.2-54.9-47-78.5-62.6l1.7-0.9&#10;&#9;&#9;c23.8,15.7,52.4,40.3,78.1,62.2c20.9,18,39.9,34.1,52.3,42.3l2.5,1.6c15.4,10.1,28.8,16.9,42.3,23.7c21.6,11,43.7,22.2,75,47.3&#10;&#9;&#9;c14.6,11.7,58,30.3,102,49.2c33.5,14.4,67.3,28.9,89.1,40.6C1130.3,613.3,1134.8,614.9,1141.1,617.3L1141.1,617.3z M1106.5,637.3&#10;&#9;&#9;l-1.9,1.1c-44.5-22.6-98-48.1-147.8-71.8c-64.4-30.7-122.8-58.5-148.1-73.6c-22.4-13.4-40.8-23.4-58.2-32.7&#10;&#9;&#9;c-30.1-16.3-57.3-31-97.5-59.4c-1.5-1.1-5.4-3.5-10.5-6.6c-5.3-3.3-11.8-7.3-18.3-11.5l1.7-1c6.2,4,12.5,7.8,17.5,11&#10;&#9;&#9;c5.2,3.2,9.1,5.6,10.6,6.7c40.1,28.3,67.2,43,97.3,59.2c17.4,9.4,35.8,19.4,58.3,32.8c25.2,15.1,83.6,42.9,148,73.5&#10;&#9;&#9;C1007.9,588.8,1061.8,614.5,1106.5,637.3L1106.5,637.3z M1080.5,652.3l-1.9,1.1c-39.5-23.1-101.9-54.1-167.5-86.8&#10;&#9;&#9;C795.7,509.2,670.4,446.9,642.5,414c-4.2-4.9-15.3-12.8-26.8-19.8c-1.9-1.2-3.8-2.3-5.7-3.3l1.9-1.1c1.6,0.9,3.2,1.9,4.8,2.8&#10;&#9;&#9;c11.7,7,22.9,15.1,27.3,20.2c27.7,32.6,152.8,94.8,268.1,152.1C978.1,597.8,1041,629.1,1080.5,652.3L1080.5,652.3z M1067.6,659.8&#10;&#9;&#9;l-1.4,0.8c-49.1-43.6-217.8-116.6-305.4-154.5c-18.8-8.1-33.8-14.7-43.2-18.9c-11.4-5.2-57.5-31.7-95.5-54.8&#10;&#9;&#9;c-15.7-9.6-30.1-18.6-40-25.4l1.7-1c9.8,6.6,23.9,15.4,39.3,24.8c37.9,23.1,83.9,49.5,95.2,54.7c9.4,4.3,24.4,10.8,43.2,18.9&#10;&#9;&#9;C849.2,542.2,1017.8,615.2,1067.6,659.8L1067.6,659.8z M1053.1,668.1l-1.9,1.1c-4.1-2.4-8.1-4.7-11.9-7&#10;&#9;&#9;c-76.3-44.7-101.3-59.3-194.6-100.8c-2.3-1-8-3.7-16.5-7.6c-53-24.3-211.9-97.3-286.4-123.6l1.6-0.9&#10;&#9;&#9;c76.1,26.6,232.9,98.7,285.5,122.8c8.5,3.9,14.2,6.5,16.5,7.6c93.4,41.6,118.4,56.2,194.8,100.9&#10;&#9;&#9;C1044.4,663,1048.7,665.5,1053.1,668.1L1053.1,668.1z M1039.1,676.2l-1.7,1c-9.8-8.3-20.3-16.1-31.4-23.3&#10;&#9;&#9;c-28.1-18.5-59-33-86.7-41.3c-3.5-1.1-7.2-2.9-11.1-4.8c-8.9-4.3-18.2-8.9-23.8-3.3c-0.2,0.2,0.1,0.8,1,1.7&#10;&#9;&#9;c4.4,4.4,19.4,12.3,38.9,22.5c28.8,15.2,67.4,35.5,96.9,57.7l-1.7,1c-29.2-21.9-67.4-42-96-57.1c-19.6-10.4-34.7-18.3-39.3-22.9&#10;&#9;&#9;c-1.7-1.8-2.2-3.2-1.1-4.3c6.5-6.6,16.4-1.8,25.9,2.9c3.8,1.9,7.5,3.7,10.8,4.7c27.9,8.4,58.9,23,87.2,41.5&#10;&#9;&#9;C1018.3,659.7,1029.1,667.7,1039.1,676.2L1039.1,676.2z M1010.6,692.6l-1.5,0.8c-41.5-26.3-112.3-62.5-160.8-87.2&#10;&#9;&#9;c-22.2-11.3-39.7-20.3-47.6-24.9c-65.3-37.6-126.1-66.1-188.4-95.2c-30-14.1-60.4-28.3-91.6-43.7l1.9-1.1&#10;&#9;&#9;c31,15.3,60.9,29.3,90.5,43.2c62.3,29.2,123.1,57.7,188.5,95.3c7.8,4.5,25.3,13.4,47.5,24.8C897.9,629.4,969,665.8,1010.6,692.6&#10;&#9;&#9;L1010.6,692.6z M995.6,701.3l-1.9,1.1c-29.8-14.6-63.3-31.5-70-35.2c-42.4-23.1-79.9-42-117.7-59.9&#10;&#9;&#9;c-37.8-17.8-75.9-34.6-119.5-53.1l-15.4-6.6c-21.2-9.1-48.6-25.7-77.5-43.2c-30.9-18.8-63.5-38.5-91.9-51.1l2-1.1&#10;&#9;&#9;c28.2,12.6,60.4,32.1,90.9,50.6c28.8,17.4,56.1,34,77.2,43l15.4,6.6c43.7,18.6,81.8,35.4,119.6,53.2&#10;&#9;&#9;c37.8,17.8,75.3,36.8,117.8,59.9C931.4,669.3,965.6,686.6,995.6,701.3L995.6,701.3z M977.7,711.7l-1.9,1.1&#10;&#9;&#9;c-41.2-22.6-111.8-53.9-185.6-86.7C693,582.9,590,537.3,540.9,505.4c-2.1-1.4-9.6-5.6-19.6-11.3c-12.8-7.3-29.9-17-45-26l1.8-1.1&#10;&#9;&#9;c14.9,8.8,31.5,18.3,44.1,25.5c10,5.7,17.5,9.9,19.7,11.4c49,31.8,151.9,77.3,249.1,120.4C865.4,657.3,936.4,688.9,977.7,711.7&#10;&#9;&#9;L977.7,711.7z M947.9,728.8l-2.1,1.2c-61.3-22.7-140.4-58.2-141.1-58.6c-20.4-11-53.1-23.5-88.8-37.1&#10;&#9;&#9;c-70.6-27-152.6-58.4-173.7-91.3c-12.1-18.9-47.2-50.2-78.4-67.8l1.9-1.1c31.2,17.9,66.1,49,78.2,67.9&#10;&#9;&#9;c20.7,32.3,102.4,63.6,172.8,90.5c35.7,13.7,68.5,26.2,89,37.3C806.4,670.2,886.5,706.2,947.9,728.8L947.9,728.8z M927,740.9&#10;&#9;&#9;l-2,1.2c-54.9-22.8-109.4-46.5-163.4-71.2c-57-26.1-113.5-53.4-169.3-81.9l-3-1.5c-62.4-32-73.4-37.5-129.3-74.5&#10;&#9;&#9;c-3.7-2.4-16.1-10.7-27.6-19.5l1.7-1c11.3,8.5,23.3,16.6,26.9,18.9c55.9,36.9,66.8,42.5,129.1,74.4l3,1.5&#10;&#9;&#9;c55.8,28.6,112.2,55.8,169.3,81.9C816.8,694,871.7,717.9,927,740.9L927,740.9z M904.6,753.9l-2,1.2c-38.8-15.6-68.8-30.8-98.6-45.9&#10;&#9;&#9;c-21.5-10.9-42.8-21.7-67.1-32.6c-35.3-15.7-69.3-33-102.8-50.1c-39.5-20.2-78.3-40-117.6-56.2c-11.9-4.9-34.9-18.8-59.5-33.7&#10;&#9;&#9;c-16.6-10-33.9-20.5-49-29l1.8-1.1c14.9,8.3,31.9,18.6,48.1,28.4c24.6,14.9,47.6,28.8,59.3,33.6c39.4,16.3,78.3,36.1,117.8,56.3&#10;&#9;&#9;c33.6,17.1,67.6,34.5,102.7,50.1c24.4,10.9,45.7,21.7,67.2,32.6C834.9,722.7,865.3,738.2,904.6,753.9L904.6,753.9z M888.7,763&#10;&#9;&#9;l-1.9,1.1c-99.3-49.3-264.5-122.2-319.2-146.3c-5.3-2.3-9.6-4.2-12.6-5.6l-19.4-8.6c-45.7-20.2-70.5-37.7-92.5-53.1&#10;&#9;&#9;c-16.7-11.8-31.8-22.3-53.2-32.1c-0.1-0.1-0.4-0.1-0.6-0.1l2.1-1.2c21.2,9.7,36.2,20.2,52.8,31.9c21.9,15.3,46.6,32.7,92.1,52.9&#10;&#9;&#9;l19.5,8.6c3,1.4,7.3,3.3,12.6,5.6C623.3,640.3,789.4,713.6,888.7,763L888.7,763z M865.3,776.6l-1.9,1.1&#10;&#9;&#9;c-69.8-35.9-141.3-69.3-212.2-102.4c-13.1-6.1-26.1-12.2-39.2-18.3c-17-8-45.9-25.8-78.3-45.7c-57.3-35.3-125.7-77.5-159.2-84.4&#10;&#9;&#9;l2.2-1.3c35,8.3,101.8,49.5,158,84.1c32.3,19.9,61.1,37.7,78,45.6c13,6.1,26.1,12.2,39.2,18.3C723.2,706.9,795.2,740.5,865.3,776.6&#10;&#9;&#9;L865.3,776.6z M847.4,786.9l-1.8,1.1c-13.5-8.3-26.6-16-39.3-21.6c-4.7-2.1-10.8-5.8-17.6-9.9c-19-11.4-42.8-25.9-49.8-14.2&#10;&#9;&#9;c-6.3,10.6,12.5,26.1,39.9,42.4c11.4,6.8,24.3,13.7,37.6,20.4l-1.9,1.1c-12.9-6.6-25.5-13.3-36.6-19.9&#10;&#9;&#9;c-28.3-16.8-47.6-33-40.5-44.9c7.8-13.3,32.6,1.7,52.3,13.6c6.8,4.1,12.9,7.8,17.5,9.8C820.1,770.4,833.7,778.3,847.4,786.9&#10;&#9;&#9;L847.4,786.9z M800.8,813.8l-1.8,1.1c-9.6-6-19.4-12-29.2-18c-33.2-20.4-65.3-40.1-81.8-53.5l-6.3-5.1&#10;&#9;&#9;c-67.3-54.5-105-75.8-146.3-99.3c-26.5-15-54.4-30.8-92.6-56.7c-1.1-0.7-5.4-3.3-11.6-7c-18.4-11.1-53-31.9-66.8-42.5l1.6-0.9&#10;&#9;&#9;c13.6,10.3,47.9,30.9,66.1,41.9c6.2,3.7,10.5,6.3,11.7,7.1c38.1,25.8,66.1,41.7,92.5,56.6c41.4,23.5,79.2,44.8,146.6,99.4l6.3,5.1&#10;&#9;&#9;c16.4,13.3,48.4,33,81.6,53.4C780.8,801.5,791,807.7,800.8,813.8L800.8,813.8z M753.3,841.3l-1.8,1c-2.1-1.4-4.3-2.7-6.5-4.2&#10;&#9;&#9;c-13-8.4-27.2-17.5-45-26.9c-30.2-15.8-59.3-46.6-88.3-77.3c-26.1-27.6-52.1-55.1-78.7-71.6c-14.1-8.7-36.1-25-60.4-43&#10;&#9;&#9;c-43.2-32-93.8-69.5-120.1-79.7l1.6-1c27.5,11,77.1,47.7,119.6,79.2c24.3,18,46.3,34.2,60.3,42.9c26.8,16.6,52.9,44.3,79.1,71.9&#10;&#9;&#9;c28.9,30.6,57.9,61.3,87.8,77c18,9.4,32.1,18.5,45.2,26.9C748.5,838.1,750.9,839.7,753.3,841.3L753.3,841.3z M747.2,844.8l-1.9,1.1&#10;&#9;&#9;c-82.2-42.3-122.1-67.5-192-111.5c-8.1-5.1-16.6-10.5-25.7-16.1c-28.9-18.2-49.1-28.4-66.6-37.3c-32.9-16.7-56.5-28.6-110.5-79.1&#10;&#9;&#9;c-2.5-2.3-8.6-7.1-16-12.9c-8.6-6.7-19-14.9-28.3-22.7l1.7-1c9.1,7.7,19.3,15.7,27.7,22.2c7.5,5.9,13.6,10.6,16.2,13.1&#10;&#9;&#9;c53.8,50.2,77.3,62.1,110.1,78.7c17.6,8.9,37.8,19.2,66.8,37.4c9,5.7,17.5,11,25.7,16.1C624.4,777,664.4,802.2,747.2,844.8&#10;&#9;&#9;L747.2,844.8z M723.8,858.3l-1.8,1c-45-26.2-94.7-59.1-138.3-87.9c-40.7-27-76.1-50.4-97-61.3l-3.6-1.9&#10;&#9;&#9;c-19.7-10.2-100.2-60.4-158.7-96.9c-18.6-11.6-34.9-21.8-46.3-28.8l1.8-1c11.4,7.1,27.4,17,45.5,28.3&#10;&#9;&#9;c58.4,36.4,138.9,86.6,158.5,96.8l3.6,1.9c21,10.9,56.3,34.3,97.2,61.4C628.6,798.9,678.7,832.1,723.8,858.3L723.8,858.3z&#10;&#9;&#9; M701.5,871.2l-1.8,1.1c-1.9-1.2-3.7-2.3-5.6-3.5c-38.9-24.5-79.4-47.3-116.9-67.1c-18.2-9.6-48.4-33.5-80.4-58.9&#10;&#9;&#9;c-31.6-25.1-65.1-51.6-90.5-67.1l-6.6-4c-11.1-6.8-20.8-12.5-29.9-17.8c-23.6-13.8-43.6-25.6-74.2-47.9&#10;&#9;&#9;c-3.2-2.3-14.9-11.2-23.8-19.6l1.7-1c8.8,8.2,20.1,16.8,23.2,19.1c30.6,22.2,50.6,34,74.1,47.8c9.2,5.4,18.9,11.1,29.9,17.8l6.6,4&#10;&#9;&#9;c25.5,15.5,59,42.1,90.7,67.2c32,25.3,62.1,49.2,80.1,58.7c37.6,19.8,78.1,42.6,117.1,67.2C697.2,868.5,699.3,869.8,701.5,871.2&#10;&#9;&#9;L701.5,871.2z M330.6,552.2l1.7-1c15.2,11.4,31.8,27.7,49.7,45.1c37.1,36.2,79.4,77.6,124.3,90.5c15.4,4.5,21.9,4.6,22.6,2&#10;&#9;&#9;c2.1-7.4-33.7-34.2-54.1-49.5c-4.6-3.4-8.4-6.3-10.8-8.2c-4.4-3.5-17.7-11.4-34.1-21.3c-30.6-18.3-72-43.3-88.6-58.7&#10;&#9;&#9;c-1.2-1.1-2.2-2.2-3.1-3.2l1.6-0.9c0.8,0.9,1.7,1.8,2.8,2.8c16.5,15.3,57.9,40.2,88.3,58.5c16.5,9.9,29.8,17.9,34.3,21.5&#10;&#9;&#9;c2.5,2,6.2,4.8,10.8,8.2c20.8,15.6,57.3,43,54.8,51.5c-1,3.7-8.3,4.1-24.9-0.7c-45.3-13.1-87.8-54.6-125.1-91&#10;&#9;&#9;C362.7,580,345.8,563.6,330.6,552.2L330.6,552.2z M638.1,374.6l1.8-1.1c27.2,14.9,62.2,38.2,92.4,58.3&#10;&#9;&#9;c23.1,15.4,43.4,28.8,55.2,35.3c1.6,0.9,4,2.3,6.9,4c16.4,9.6,50,29.3,57.3,22.3c0.8-0.8-1-3.4-4.8-7.4&#10;&#9;&#9;c-16.3-17.1-68.3-54.3-103.4-79.4c-13.3-9.5-24.2-17.3-29.8-21.6l-4.1-3.1c-1.7-1.3-7.3-4.7-14.6-9c-7.8-4.6-17.4-10.3-26.4-16&#10;&#9;&#9;l1.8-1.1c8.7,5.5,18,11,25.5,15.4c7.4,4.4,13.1,7.7,14.8,9.1l4.1,3.1c5.6,4.3,16.5,12.1,29.7,21.6c35.2,25.2,87.2,62.4,103.7,79.6&#10;&#9;&#9;c4.5,4.8,6.5,8.3,4.7,10c-8.3,7.9-42.7-12.3-59.5-22.1c-2.9-1.7-5.2-3-6.8-3.9c-11.9-6.5-32.2-20-55.3-35.4&#10;&#9;&#9;C700.7,413.1,665.1,389.4,638.1,374.6L638.1,374.6z" transform="matrix(0.9999999999999999, 0, 0, 0.9999999999999999, -2.842170943040401e-14, 0)"/><path d="M 1161 631.0999755859375 L 700 897.7000122070312 L 700 872.2999877929688 L 1161 605.7000122070312 Z" fill-rule="evenodd" clip-rule="evenodd" fill="#FFD187" transform="matrix(0.9999999999999999, 0, 0, 0.9999999999999999, -2.842170943040401e-14, 0)"/><path d="M 238 631.0999755859375 L 700 897.7000122070312 L 700 872.2999877929688 L 238 605.7000122070312 Z" fill-rule="evenodd" clip-rule="evenodd" fill="#D49633" transform="matrix(0.9999999999999999, 0, 0, 0.9999999999999999, -2.842170943040401e-14, 0)"/><path d="M 1136.199951171875 620.0999755859375 L 1133.800048828125 621.5 L 672.2000122070312 354.8999938964844 L 674.7000122070312 353.5 Z" fill-rule="evenodd" clip-rule="evenodd" fill="#D49633" transform="matrix(0.9999999999999999, 0, 0, 0.9999999999999999, -2.842170943040401e-14, 0)"/><path d="M 1138.699951171875 618.5999755859375 L 1136.199951171875 620.0999755859375 L 674.7000122070312 353.5 L 677.0999755859375 352 Z" fill-rule="evenodd" clip-rule="evenodd" fill="#FFD187" transform="matrix(0.9999999999999999, 0, 0, 0.9999999999999999, -2.842170943040401e-14, 0)"/><path d="M 1101.9000244140625 639.9000244140625 L 1099.4000244140625 641.2999877929688 L 637.7999877929688 374.70001220703125 L 640.2999877929688 373.29998779296875 Z" fill-rule="evenodd" clip-rule="evenodd" fill="#D49633" transform="matrix(0.9999999999999999, 0, 0, 0.9999999999999999, -2.842170943040401e-14, 0)"/><path d="M 1104.4000244140625 638.5 L 1101.9000244140625 639.9000244140625 L 640.2999877929688 373.29998779296875 L 642.7999877929688 371.8999938964844 Z" fill-rule="evenodd" clip-rule="evenodd" fill="#FFD187" transform="matrix(0.9999999999999999, 0, 0, 0.9999999999999999, -2.842170943040401e-14, 0)"/><path d="M 1067.5999755859375 659.7000122070312 L 1065.0999755859375 661.2000122070312 L 603.5 394.6000061035156 L 606 393.20001220703125 Z" fill-rule="evenodd" clip-rule="evenodd" fill="#D49633" transform="matrix(0.9999999999999999, 0, 0, 0.9999999999999999, -2.842170943040401e-14, 0)"/><path d="M 1070.0999755859375 658.2999877929688 L 1067.5999755859375 659.7000122070312 L 606 393.20001220703125 L 608.5 391.70001220703125 Z" fill-rule="evenodd" clip-rule="evenodd" fill="#FFD187" transform="matrix(0.9999999999999999, 0, 0, 0.9999999999999999, -2.842170943040401e-14, 0)"/><path d="M 1033.300048828125 679.5 L 1030.800048828125 681 L 569.2000122070312 414.3999938964844 L 571.7000122070312 413 Z" fill-rule="evenodd" clip-rule="evenodd" fill="#D49633" transform="matrix(0.9999999999999999, 0, 0, 0.9999999999999999, -2.842170943040401e-14, 0)"/><path d="M 1035.699951171875 678.0999755859375 L 1033.300048828125 679.5 L 571.7000122070312 413 L 574.2000122070312 411.5 Z" fill-rule="evenodd" clip-rule="evenodd" fill="#FFD187" transform="matrix(0.9999999999999999, 0, 0, 0.9999999999999999, -2.842170943040401e-14, 0)"/><path d="M 998.9000244140625 699.4000244140625 L 996.4000244140625 700.7999877929688 L 534.9000244140625 434.20001220703125 L 537.4000244140625 432.79998779296875 Z" fill-rule="evenodd" clip-rule="evenodd" fill="#D49633" transform="matrix(0.9999999999999999, 0, 0, 0.9999999999999999, -2.842170943040401e-14, 0)"/><path d="M 1001.4000244140625 698 L 998.9000244140625 699.4000244140625 L 537.4000244140625 432.79998779296875 L 539.7999877929688 431.29998779296875 Z" fill-rule="evenodd" clip-rule="evenodd" fill="#FFD187" transform="matrix(0.9999999999999999, 0, 0, 0.9999999999999999, -2.842170943040401e-14, 0)"/><path d="M 964.5999755859375 719.2000122070312 L 962.0999755859375 720.5999755859375 L 500.5 454.1000061035156 L 503 452.6000061035156 Z" fill-rule="evenodd" clip-rule="evenodd" fill="#D49633" transform="matrix(0.9999999999999999, 0, 0, 0.9999999999999999, -2.842170943040401e-14, 0)"/><path d="M 967.0999755859375 717.7999877929688 L 964.5999755859375 719.2000122070312 L 503 452.6000061035156 L 505.5 451.20001220703125 Z" fill-rule="evenodd" clip-rule="evenodd" fill="#FFD187" transform="matrix(0.9999999999999999, 0, 0, 0.9999999999999999, -2.842170943040401e-14, 0)"/><path d="M 930.2999877929688 739 L 927.7999877929688 740.5 L 466.20001220703125 473.8999938964844 L 468.70001220703125 472.5 Z" fill-rule="evenodd" clip-rule="evenodd" fill="#D49633" transform="matrix(0.9999999999999999, 0, 0, 0.9999999999999999, -2.842170943040401e-14, 0)"/><path d="M 932.7000122070312 737.5999755859375 L 930.2999877929688 739 L 468.70001220703125 472.5 L 471.20001220703125 471 Z" fill-rule="evenodd" clip-rule="evenodd" fill="#FFD187" transform="matrix(0.9999999999999999, 0, 0, 0.9999999999999999, -2.842170943040401e-14, 0)"/><path d="M 895.9000244140625 758.9000244140625 L 893.4000244140625 760.2999877929688 L 431.8999938964844 493.70001220703125 L 434.3999938964844 492.29998779296875 Z" fill-rule="evenodd" clip-rule="evenodd" fill="#D49633" transform="matrix(0.9999999999999999, 0, 0, 0.9999999999999999, -2.842170943040401e-14, 0)"/><path d="M 898.4000244140625 757.4000244140625 L 895.9000244140625 758.9000244140625 L 434.3999938964844 492.29998779296875 L 436.79998779296875 490.79998779296875 Z" fill-rule="evenodd" clip-rule="evenodd" fill="#FFD187" transform="matrix(0.9999999999999999, 0, 0, 0.9999999999999999, -2.842170943040401e-14, 0)"/><path d="M 861.5999755859375 778.7000122070312 L 859.0999755859375 780.0999755859375 L 397.5 513.5999755859375 L 400 512.0999755859375 Z" fill-rule="evenodd" clip-rule="evenodd" fill="#D49633" transform="matrix(0.9999999999999999, 0, 0, 0.9999999999999999, -2.842170943040401e-14, 0)"/><path d="M 864.0999755859375 777.2999877929688 L 861.5999755859375 778.7000122070312 L 400 512.0999755859375 L 402.5 510.70001220703125 Z" fill-rule="evenodd" clip-rule="evenodd" fill="#FFD187" transform="matrix(0.9999999999999999, 0, 0, 0.9999999999999999, -2.842170943040401e-14, 0)"/><path d="M 827.2999877929688 798.5 L 824.7999877929688 799.9000244140625 L 363.20001220703125 533.4000244140625 L 365.70001220703125 531.9000244140625 Z" fill-rule="evenodd" clip-rule="evenodd" fill="#D49633" transform="matrix(0.9999999999999999, 0, 0, 0.9999999999999999, -2.842170943040401e-14, 0)"/><path d="M 829.7999877929688 797.0999755859375 L 827.2999877929688 798.5 L 365.70001220703125 531.9000244140625 L 368.20001220703125 530.5 Z" fill-rule="evenodd" clip-rule="evenodd" fill="#FFD187" transform="matrix(0.9999999999999999, 0, 0, 0.9999999999999999, -2.842170943040401e-14, 0)"/><path d="M 793 818.4000244140625 L 790.5 819.7999877929688 L 328.8999938964844 553.2000122070312 L 331.3999938964844 551.7999877929688 Z" fill-rule="evenodd" clip-rule="evenodd" fill="#D49633" transform="matrix(0.9999999999999999, 0, 0, 0.9999999999999999, -2.842170943040401e-14, 0)"/><path d="M 795.4000244140625 816.9000244140625 L 793 818.4000244140625 L 331.3999938964844 551.7999877929688 L 333.79998779296875 550.2999877929688 Z" fill-rule="evenodd" clip-rule="evenodd" fill="#FFD187" transform="matrix(0.9999999999999999, 0, 0, 0.9999999999999999, -2.842170943040401e-14, 0)"/><path d="M 761.0999755859375 836.7000122070312 L 758.5999755859375 838.2000122070312 L 297.1000061035156 571.5999755859375 L 299.5 570.2000122070312 Z" fill-rule="evenodd" clip-rule="evenodd" fill="#FFD187" transform="matrix(0.9999999999999999, 0, 0, 0.9999999999999999, -2.842170943040401e-14, 0)"/><path d="M 758.5999755859375 838.2000122070312 L 756.0999755859375 839.5999755859375 L 294.6000061035156 573 L 297.1000061035156 571.5999755859375 Z" fill-rule="evenodd" clip-rule="evenodd" fill="#D49633" transform="matrix(0.9999999999999999, 0, 0, 0.9999999999999999, -2.842170943040401e-14, 0)"/><path d="M 726.7999877929688 856.5999755859375 L 724.2999877929688 858 L 262.70001220703125 591.4000244140625 L 265.20001220703125 590 Z" fill-rule="evenodd" clip-rule="evenodd" fill="#FFD187" transform="matrix(0.9999999999999999, 0, 0, 0.9999999999999999, -2.842170943040401e-14, 0)"/><path d="M 724.2999877929688 858 L 721.7999877929688 859.4000244140625 L 260.20001220703125 592.9000244140625 L 262.70001220703125 591.4000244140625 Z" fill-rule="evenodd" clip-rule="evenodd" fill="#D49633" transform="matrix(0.9999999999999999, 0, 0, 0.9999999999999999, -2.842170943040401e-14, 0)"/><path d="M 733.5 358.79998779296875 L 271.8999938964844 625.4000244140625 L 237.89999389648438 605.7000122070312 L 699.5 339.20001220703125 Z" fill-rule="evenodd" clip-rule="evenodd" fill="#D49D44" transform="matrix(0.9999999999999999, 0, 0, 0.9999999999999999, -2.842170943040401e-14, 0)"/><path d="M 706.2000122070312 374.6000061035156 L 672.2000122070312 354.8999938964844 L 674.7000122070312 353.5 L 708.7000122070312 373.1000061035156 Z" fill-rule="evenodd" clip-rule="evenodd" fill="#B47D26" transform="matrix(0.9999999999999999, 0, 0, 0.9999999999999999, -2.842170943040401e-14, 0)"/><path d="M 708.7000122070312 373.1000061035156 L 674.7000122070312 353.5 L 677.0999755859375 352 L 711.2000122070312 371.70001220703125 Z" fill-rule="evenodd" clip-rule="evenodd" fill="#F9B955" transform="matrix(0.9999999999999999, 0, 0, 0.9999999999999999, -2.842170943040401e-14, 0)"/><path d="M 671.9000244140625 394.3999938964844 L 637.7999877929688 374.70001220703125 L 640.2999877929688 373.29998779296875 L 674.2999877929688 392.8999938964844 Z" fill-rule="evenodd" clip-rule="evenodd" fill="#B47D26" transform="matrix(0.9999999999999999, 0, 0, 0.9999999999999999, -2.842170943040401e-14, 0)"/><path d="M 674.2999877929688 392.8999938964844 L 640.2999877929688 373.29998779296875 L 642.7999877929688 371.8999938964844 L 676.7999877929688 391.5 Z" fill-rule="evenodd" clip-rule="evenodd" fill="#F9B955" transform="matrix(0.9999999999999999, 0, 0, 0.9999999999999999, -2.842170943040401e-14, 0)"/><path d="M 637.5 414.20001220703125 L 603.5 394.6000061035156 L 606 393.20001220703125 L 640 412.79998779296875 Z" fill-rule="evenodd" clip-rule="evenodd" fill="#B47D26" transform="matrix(0.9999999999999999, 0, 0, 0.9999999999999999, -2.842170943040401e-14, 0)"/><path d="M 640 412.79998779296875 L 606 393.20001220703125 L 608.5 391.70001220703125 L 642.5 411.3999938964844 Z" fill-rule="evenodd" clip-rule="evenodd" fill="#F9B955" transform="matrix(0.9999999999999999, 0, 0, 0.9999999999999999, -2.842170943040401e-14, 0)"/><path d="M 603.2000122070312 434 L 569.2000122070312 414.3999938964844 L 571.7000122070312 413 L 605.7000122070312 432.6000061035156 Z" fill-rule="evenodd" clip-rule="evenodd" fill="#B47D26" transform="matrix(0.9999999999999999, 0, 0, 0.9999999999999999, -2.842170943040401e-14, 0)"/><path d="M 605.7000122070312 432.6000061035156 L 571.7000122070312 413 L 574.2000122070312 411.5 L 608.2000122070312 431.20001220703125 Z" fill-rule="evenodd" clip-rule="evenodd" fill="#F9B955" transform="matrix(0.9999999999999999, 0, 0, 0.9999999999999999, -2.842170943040401e-14, 0)"/><path d="M 568.9000244140625 453.8999938964844 L 534.9000244140625 434.20001220703125 L 537.4000244140625 432.79998779296875 L 571.2999877929688 452.3999938964844 Z" fill-rule="evenodd" clip-rule="evenodd" fill="#B47D26" transform="matrix(0.9999999999999999, 0, 0, 0.9999999999999999, -2.842170943040401e-14, 0)"/><path d="M 571.2999877929688 452.3999938964844 L 537.4000244140625 432.79998779296875 L 539.7999877929688 431.29998779296875 L 573.7999877929688 451 Z" fill-rule="evenodd" clip-rule="evenodd" fill="#F9B955" transform="matrix(0.9999999999999999, 0, 0, 0.9999999999999999, -2.842170943040401e-14, 0)"/><path d="M 534.5 473.70001220703125 L 500.5 454.1000061035156 L 503 452.6000061035156 L 537 472.20001220703125 Z" fill-rule="evenodd" clip-rule="evenodd" fill="#B47D26" transform="matrix(0.9999999999999999, 0, 0, 0.9999999999999999, -2.842170943040401e-14, 0)"/><path d="M 537 472.20001220703125 L 503 452.6000061035156 L 505.5 451.20001220703125 L 539.5 470.79998779296875 Z" fill-rule="evenodd" clip-rule="evenodd" fill="#F9B955" transform="matrix(0.9999999999999999, 0, 0, 0.9999999999999999, -2.842170943040401e-14, 0)"/><path d="M 500.20001220703125 493.5 L 466.20001220703125 473.8999938964844 L 468.70001220703125 472.5 L 502.70001220703125 492.1000061035156 Z" fill-rule="evenodd" clip-rule="evenodd" fill="#B47D26" transform="matrix(0.9999999999999999, 0, 0, 0.9999999999999999, -2.842170943040401e-14, 0)"/><path d="M 502.70001220703125 492.1000061035156 L 468.70001220703125 472.5 L 471.20001220703125 471 L 505.20001220703125 490.70001220703125 Z" fill-rule="evenodd" clip-rule="evenodd" fill="#F9B955" transform="matrix(0.9999999999999999, 0, 0, 0.9999999999999999, -2.842170943040401e-14, 0)"/><path d="M 465.8999938964844 513.2999877929688 L 431.8999938964844 493.70001220703125 L 434.3999938964844 492.29998779296875 L 468.29998779296875 511.8999938964844 Z" fill-rule="evenodd" clip-rule="evenodd" fill="#B47D26" transform="matrix(0.9999999999999999, 0, 0, 0.9999999999999999, -2.842170943040401e-14, 0)"/><path d="M 468.29998779296875 511.8999938964844 L 434.3999938964844 492.29998779296875 L 436.79998779296875 490.79998779296875 L 470.79998779296875 510.5 Z" fill-rule="evenodd" clip-rule="evenodd" fill="#F9B955" transform="matrix(0.9999999999999999, 0, 0, 0.9999999999999999, -2.842170943040401e-14, 0)"/><path d="M 431.5 533.2000122070312 L 397.5 513.5999755859375 L 400 512.0999755859375 L 434 531.7000122070312 Z" fill-rule="evenodd" clip-rule="evenodd" fill="#B47D26" transform="matrix(0.9999999999999999, 0, 0, 0.9999999999999999, -2.842170943040401e-14, 0)"/><path d="M 434 531.7000122070312 L 400 512.0999755859375 L 402.5 510.70001220703125 L 436.5 530.2999877929688 Z" fill-rule="evenodd" clip-rule="evenodd" fill="#F9B955" transform="matrix(0.9999999999999999, 0, 0, 0.9999999999999999, -2.842170943040401e-14, 0)"/><path d="M 397.20001220703125 553 L 363.20001220703125 533.4000244140625 L 365.70001220703125 531.9000244140625 L 399.70001220703125 551.5999755859375 Z" fill-rule="evenodd" clip-rule="evenodd" fill="#B47D26" transform="matrix(0.9999999999999999, 0, 0, 0.9999999999999999, -2.842170943040401e-14, 0)"/><path d="M 399.70001220703125 551.5999755859375 L 365.70001220703125 531.9000244140625 L 368.20001220703125 530.5 L 402.20001220703125 550.0999755859375 Z" fill-rule="evenodd" clip-rule="evenodd" fill="#F9B955" transform="matrix(0.9999999999999999, 0, 0, 0.9999999999999999, -2.842170943040401e-14, 0)"/><path d="M 362.8999938964844 572.7999877929688 L 328.8999938964844 553.2000122070312 L 331.3999938964844 551.7999877929688 L 365.3999938964844 571.4000244140625 Z" fill-rule="evenodd" clip-rule="evenodd" fill="#B47D26" transform="matrix(0.9999999999999999, 0, 0, 0.9999999999999999, -2.842170943040401e-14, 0)"/><path d="M 365.3999938964844 571.4000244140625 L 331.3999938964844 551.7999877929688 L 333.79998779296875 550.2999877929688 L 367.8999938964844 570 Z" fill-rule="evenodd" clip-rule="evenodd" fill="#F9B955" transform="matrix(0.9999999999999999, 0, 0, 0.9999999999999999, -2.842170943040401e-14, 0)"/><path d="M 331 591.2000122070312 L 297.1000061035156 571.5999755859375 L 299.5 570.2000122070312 L 333.5 589.7999877929688 Z" fill-rule="evenodd" clip-rule="evenodd" fill="#F9B955" transform="matrix(0.9999999999999999, 0, 0, 0.9999999999999999, -2.842170943040401e-14, 0)"/><path d="M 328.6000061035156 592.5999755859375 L 294.6000061035156 573 L 297.1000061035156 571.5999755859375 L 331 591.2000122070312 Z" fill-rule="evenodd" clip-rule="evenodd" fill="#B47D26" transform="matrix(0.9999999999999999, 0, 0, 0.9999999999999999, -2.842170943040401e-14, 0)"/><path d="M 296.70001220703125 611.0999755859375 L 262.70001220703125 591.4000244140625 L 265.20001220703125 590 L 299.20001220703125 609.5999755859375 Z" fill-rule="evenodd" clip-rule="evenodd" fill="#F9B955" transform="matrix(0.9999999999999999, 0, 0, 0.9999999999999999, -2.842170943040401e-14, 0)"/><path d="M 294.20001220703125 612.5 L 260.20001220703125 592.9000244140625 L 262.70001220703125 591.4000244140625 L 296.70001220703125 611.0999755859375 Z" fill-rule="evenodd" clip-rule="evenodd" fill="#B47D26" transform="matrix(0.9999999999999999, 0, 0, 0.9999999999999999, -2.842170943040401e-14, 0)"/><path d="M 1013.2000122070312 602.4000244140625 L 1161 605.7000122070312 L 1066.199951171875 550.9000244140625 L 933.7999877929688 555.5999755859375 Z" fill-rule="evenodd" clip-rule="evenodd" fill="#A1752F" transform="matrix(0.9999999999999999, 0, 0, 0.9999999999999999, -2.842170943040401e-14, 0)"/><path d="M 711.7000122070312 751.5999755859375 L 666.7999877929688 777.4000244140625 L 674.5999755859375 793.5 L 664.7999877929688 799.2000122070312 L 526.4000244140625 719.2000122070312 L 481.6000061035156 654.7999877929688 L 692.7999877929688 700.7999877929688 Z" fill-rule="evenodd" clip-rule="evenodd" fill="#D49D44" transform="matrix(0.9999999999999999, 0, 0, 0.9999999999999999, -2.842170943040401e-14, 0)"/><path d="M 703.7000122070312 730 L 629.2000122070312 687 L 637.2000122070312 688.7000122070312 L 702.2999877929688 726.2999877929688 Z" fill-rule="evenodd" clip-rule="evenodd" fill="#B47D26" transform="matrix(0.9999999999999999, 0, 0, 0.9999999999999999, -2.842170943040401e-14, 0)"/><path d="M 702.2999877929688 726.2999877929688 L 637.2000122070312 688.7000122070312 L 645.2000122070312 690.5 L 700.9000244140625 722.7000122070312 Z" fill-rule="evenodd" clip-rule="evenodd" fill="#F9B955" transform="matrix(0.9999999999999999, 0, 0, 0.9999999999999999, -2.842170943040401e-14, 0)"/><path d="M 692 762.9000244140625 L 518.7999877929688 662.9000244140625 L 526.7999877929688 664.7000122070312 L 694.5 761.5 Z" fill-rule="evenodd" clip-rule="evenodd" fill="#B47D26" transform="matrix(0.9999999999999999, 0, 0, 0.9999999999999999, -2.842170943040401e-14, 0)"/><path d="M 694.5 761.5 L 526.7999877929688 664.7000122070312 L 534.7999877929688 666.4000244140625 L 697 760.0999755859375 Z" fill-rule="evenodd" clip-rule="evenodd" fill="#F9B955" transform="matrix(0.9999999999999999, 0, 0, 0.9999999999999999, -2.842170943040401e-14, 0)"/><path d="M 672 788.2000122070312 L 508.79998779296875 693.9000244140625 L 505.3999938964844 689.0999755859375 L 670.0999755859375 784.2000122070312 Z" fill-rule="evenodd" clip-rule="evenodd" fill="#F9B955" transform="matrix(0.9999999999999999, 0, 0, 0.9999999999999999, -2.842170943040401e-14, 0)"/><path d="M 673.9000244140625 792.0999755859375 L 512.0999755859375 698.7000122070312 L 508.79998779296875 693.9000244140625 L 672 788.2000122070312 Z" fill-rule="evenodd" clip-rule="evenodd" fill="#B47D26" transform="matrix(0.9999999999999999, 0, 0, 0.9999999999999999, -2.842170943040401e-14, 0)"/><path d="M 1100.199951171875 623.2000122070312 L 1136.199951171875 620.0999755859375 L 1161 605.7000122070312 L 1141.5999755859375 594.5 L 1076.300048828125 609.4000244140625 Z" fill-rule="evenodd" clip-rule="evenodd" fill="#A1752F" transform="matrix(0.9999999999999999, 0, 0, 0.9999999999999999, -2.842170943040401e-14, 0)"/>
<path d="M 238 374.8999938964844 L 216 362 L 216 618.2999877929688 L 238 631.0999755859375 Z" fill-rule="evenodd" clip-rule="evenodd" fill="#BDA58B" transform="matrix(0.9999999999999999, 0, 0, 0.9999999999999999, -2.842170943040401e-14, 0)"/><path d="M 700 108.30000305175781 L 238 374.8999938964844 L 238 605.7000122070312 L 700 339.20001220703125 Z" fill-rule="evenodd" clip-rule="evenodd" fill="#E4C9AC" transform="matrix(0.9999999999999999, 0, 0, 0.9999999999999999, -2.842170943040401e-14, 0)"/><path d="M 238.1999969482422 374.8999938964844 L 216 362 L 700 82.5999984741211 L 700 108.30000305175781 Z" fill-rule="evenodd" clip-rule="evenodd" fill="#FAE4CD" transform="matrix(0.9999999999999999, 0, 0, 0.9999999999999999, -2.842170943040401e-14, 0)"/>
<path d="M 700 108.30000305175781 L 1161 374.8999938964844 L 1161 605.7000122070312 L 700 339.20001220703125 Z" fill-rule="evenodd" clip-rule="evenodd" fill="#BDA58B" transform="matrix(0.9999999999999999, 0, 0, 0.9999999999999999, -2.842170943040401e-14, 0)"/><path d="M 1161.300048828125 374.8999938964844 L 1183.699951171875 362 L 700 82.5999984741211 L 700 108.30000305175781 Z" fill-rule="evenodd" clip-rule="evenodd" fill="#E4C9AC" transform="matrix(0.9999999999999999, 0, 0, 0.9999999999999999, -2.842170943040401e-14, 0)"/><path d="M 1161 374.8999938964844 L 1183 362 L 1183 618.2999877929688 L 1161 631.0999755859375 Z" fill-rule="evenodd" clip-rule="evenodd" fill="#E4C9AC" transform="matrix(0.9999999999999999, 0, 0, 0.9999999999999999, -2.842170943040401e-14, 0)"/>
<path d="M 696 374.20001220703125 L 672 360.3999938964844 L 672 387.20001220703125 L 696 401 Z" fill-rule="evenodd" clip-rule="evenodd" fill="#1A1A1A" transform="matrix(0.9999999999999999, 0, 0, 0.9999999999999999, -2.842170943040401e-14, 0)"/><path d="M 696 374.20001220703125 L 720 360.3999938964844 L 720 387.20001220703125 L 696 401 Z" fill-rule="evenodd" clip-rule="evenodd" fill="#4D4D4D" transform="matrix(0.9999999999999999, 0, 0, 0.9999999999999999, -2.842170943040401e-14, 0)"/><path d="M 695.7999877929688 374.20001220703125 L 719.7000122070312 360.3999938964844 L 695.7999877929688 346.6000061035156 L 671.9000244140625 360.3999938964844 Z" fill-rule="evenodd" clip-rule="evenodd" fill="#333333" transform="matrix(0.9999999999999999, 0, 0, 0.9999999999999999, -2.842170943040401e-14, 0)"/><path d="M 696 186.8000030517578 L 689 182.5 L 689 360.8999938964844 L 696 365.1000061035156 Z" fill-rule="evenodd" clip-rule="evenodd" fill="#D49633" transform="matrix(0.9999999999999999, 0, 0, 0.9999999999999999, -2.842170943040401e-14, 0)"/><path d="M 696 186.8000030517578 L 704 182.5 L 704 360.8999938964844 L 696 365.1000061035156 Z" fill-rule="evenodd" clip-rule="evenodd" fill="#FFD187" transform="matrix(0.9999999999999999, 0, 0, 0.9999999999999999, -2.842170943040401e-14, 0)"/><path d="M 696 183.3000030517578 L 672 169.5 L 672 292.3999938964844 L 696 306.20001220703125 Z" fill-rule="evenodd" clip-rule="evenodd" fill="#D6D689" transform="matrix(0.9999999999999999, 0, 0, 0.9999999999999999, -2.842170943040401e-14, 0)"/><path d="M 696 183.3000030517578 L 720 169.5 L 720 292.3999938964844 L 696 306.20001220703125 Z" fill-rule="evenodd" clip-rule="evenodd" fill="#FFFFCC" transform="matrix(0.9999999999999999, 0, 0, 0.9999999999999999, -2.842170943040401e-14, 0)"/><path d="M 695.7999877929688 183.3000030517578 L 719.7000122070312 169.5 L 695.7999877929688 155.6999969482422 L 671.9000244140625 169.5 Z" fill-rule="evenodd" clip-rule="evenodd" fill="#EBEBA4" transform="matrix(0.9999999999999999, 0, 0, 0.9999999999999999, -2.842170943040401e-14, 0)"/><path d="M 696 183.3000030517578 L 672 169.5 L 672 177.5 L 696 191.3000030517578 Z" fill-rule="evenodd" clip-rule="evenodd" fill="#1A1A1A" transform="matrix(0.9999999999999999, 0, 0, 0.9999999999999999, -2.842170943040401e-14, 0)"/><path d="M 696 183.3000030517578 L 720 169.5 L 720 177.5 L 696 191.3000030517578 Z" fill-rule="evenodd" clip-rule="evenodd" fill="#4D4D4D" transform="matrix(0.9999999999999999, 0, 0, 0.9999999999999999, -2.842170943040401e-14, 0)"/><path d="M 696 298.1000061035156 L 672 284.29998779296875 L 672 292.3999938964844 L 696 306.20001220703125 Z" fill-rule="evenodd" clip-rule="evenodd" fill="#1A1A1A" transform="matrix(0.9999999999999999, 0, 0, 0.9999999999999999, -2.842170943040401e-14, 0)"/><path d="M 696 298.1000061035156 L 720 284.29998779296875 L 720 292.3999938964844 L 696 306.20001220703125 Z" fill-rule="evenodd" clip-rule="evenodd" fill="#4D4D4D" transform="matrix(0.9999999999999999, 0, 0, 0.9999999999999999, -2.842170943040401e-14, 0)"/>
<path d="M 363 552.0999755859375 L 359 550 L 359 582.7999877929688 L 363 584.9000244140625 Z" fill-rule="evenodd" clip-rule="evenodd" fill="#1A1A1A" transform="matrix(0.9999999999999999, 0, 0, 0.9999999999999999, -2.842170943040401e-14, 0)"/><path d="M 363 552.0999755859375 L 367 550 L 367 582.7999877929688 L 363 584.9000244140625 Z" fill-rule="evenodd" clip-rule="evenodd" fill="#4D4D4D" transform="matrix(0.9999999999999999, 0, 0, 0.9999999999999999, -2.842170943040401e-14, 0)"/><path d="M 381 541.5 L 378 539.2999877929688 L 378 572.0999755859375 L 381 574.2000122070312 Z" fill-rule="evenodd" clip-rule="evenodd" fill="#1A1A1A" transform="matrix(0.9999999999999999, 0, 0, 0.9999999999999999, -2.842170943040401e-14, 0)"/><path d="M 381 541.5 L 385 539.2999877929688 L 385 572.0999755859375 L 381 574.2000122070312 Z" fill-rule="evenodd" clip-rule="evenodd" fill="#4D4D4D" transform="matrix(0.9999999999999999, 0, 0, 0.9999999999999999, -2.842170943040401e-14, 0)"/><path d="M 344 541.5 L 341 539.2999877929688 L 341 572.0999755859375 L 344 574.2000122070312 Z" fill-rule="evenodd" clip-rule="evenodd" fill="#1A1A1A" transform="matrix(0.9999999999999999, 0, 0, 0.9999999999999999, -2.842170943040401e-14, 0)"/><path d="M 344 541.5 L 348 539.2999877929688 L 348 572.0999755859375 L 344 574.2000122070312 Z" fill-rule="evenodd" clip-rule="evenodd" fill="#4D4D4D" transform="matrix(0.9999999999999999, 0, 0, 0.9999999999999999, -2.842170943040401e-14, 0)"/><path d="M 336 415.8999938964844 L 360 437.29998779296875 L 360 446.6000061035156 L 336 418.5 Z" fill-rule="evenodd" clip-rule="evenodd" fill="#D49633" transform="matrix(0.9999999999999999, 0, 0, 0.9999999999999999, -2.842170943040401e-14, 0)"/><path d="M 338 415 L 361.8999938964844 436.29998779296875 L 360 437.29998779296875 L 336.1000061035156 415.8999938964844 Z" fill-rule="evenodd" clip-rule="evenodd" fill="#FFD187" transform="matrix(0.9999999999999999, 0, 0, 0.9999999999999999, -2.842170943040401e-14, 0)"/><path d="M 336 367.70001220703125 L 360 389.1000061035156 L 360 398.3999938964844 L 336 370.29998779296875 Z" fill-rule="evenodd" clip-rule="evenodd" fill="#D49633" transform="matrix(0.9999999999999999, 0, 0, 0.9999999999999999, -2.842170943040401e-14, 0)"/><path d="M 338 366.79998779296875 L 361.8999938964844 388.1000061035156 L 360 389.1000061035156 L 336.1000061035156 367.70001220703125 Z" fill-rule="evenodd" clip-rule="evenodd" fill="#FFD187" transform="matrix(0.9999999999999999, 0, 0, 0.9999999999999999, -2.842170943040401e-14, 0)"/><path d="M 387 393.8999938964844 L 364 415.20001220703125 L 364 424.5 L 387 396.3999938964844 Z" fill-rule="evenodd" clip-rule="evenodd" fill="#D49633" transform="matrix(0.9999999999999999, 0, 0, 0.9999999999999999, -2.842170943040401e-14, 0)"/><path d="M 385.70001220703125 392.8999938964844 L 361.8999938964844 414.20001220703125 L 363.70001220703125 415.20001220703125 L 387.6000061035156 393.8999938964844 Z" fill-rule="evenodd" clip-rule="evenodd" fill="#FFD187" transform="matrix(0.9999999999999999, 0, 0, 0.9999999999999999, -2.842170943040401e-14, 0)"/><path d="M 387 437.70001220703125 L 364 459 L 364 468.29998779296875 L 387 440.20001220703125 Z" fill-rule="evenodd" clip-rule="evenodd" fill="#D49633" transform="matrix(0.9999999999999999, 0, 0, 0.9999999999999999, -2.842170943040401e-14, 0)"/><path d="M 385.70001220703125 436.70001220703125 L 361.8999938964844 458.1000061035156 L 363.70001220703125 459 L 387.6000061035156 437.70001220703125 Z" fill-rule="evenodd" clip-rule="evenodd" fill="#FFD187" transform="matrix(0.9999999999999999, 0, 0, 0.9999999999999999, -2.842170943040401e-14, 0)"/><path d="M 363 542.7999877929688 L 338 529 L 338 538.2999877929688 L 363 552.0999755859375 Z" fill-rule="evenodd" clip-rule="evenodd" fill="#D49633" transform="matrix(0.9999999999999999, 0, 0, 0.9999999999999999, -2.842170943040401e-14, 0)"/><path d="M 363 542.7999877929688 L 386 529 L 386 538.2999877929688 L 363 552.0999755859375 Z" fill-rule="evenodd" clip-rule="evenodd" fill="#FFD187" transform="matrix(0.9999999999999999, 0, 0, 0.9999999999999999, -2.842170943040401e-14, 0)"/><path d="M 362.29998779296875 542.7999877929688 L 386.20001220703125 529 L 362.29998779296875 515.2000122070312 L 338.5 529 Z" fill-rule="evenodd" clip-rule="evenodd" fill="#F9B955" transform="matrix(0.9999999999999999, 0, 0, 0.9999999999999999, -2.842170943040401e-14, 0)"/><path d="M 363 355.5 L 356 351.20001220703125 L 356 529.5999755859375 L 363 533.9000244140625 Z" fill-rule="evenodd" clip-rule="evenodd" fill="#1A1A1A" transform="matrix(0.9999999999999999, 0, 0, 0.9999999999999999, -2.842170943040401e-14, 0)"/><path d="M 363 355.5 L 370 351.20001220703125 L 370 529.5999755859375 L 363 533.9000244140625 Z" fill-rule="evenodd" clip-rule="evenodd" fill="#4D4D4D" transform="matrix(0.9999999999999999, 0, 0, 0.9999999999999999, -2.842170943040401e-14, 0)"/><path d="M 389 424 L 392 422 L 392 426 L 389 427.79998779296875 Z" fill-rule="evenodd" clip-rule="evenodd" fill="#FFD187" transform="matrix(0.9999999999999999, 0, 0, 0.9999999999999999, -2.842170943040401e-14, 0)"/><path d="M 389 424 L 364 439.1000061035156 L 364 448.3999938964844 L 389 427.79998779296875 Z" fill-rule="evenodd" clip-rule="evenodd" fill="#D49633" transform="matrix(0.9999999999999999, 0, 0, 0.9999999999999999, -2.842170943040401e-14, 0)"/><path d="M 364.6000061035156 448.3999938964844 L 367.8999938964844 446.5 L 391.79998779296875 426 L 388.5 427.79998779296875 Z" fill-rule="evenodd" clip-rule="evenodd" fill="#B37627" transform="matrix(0.9999999999999999, 0, 0, 0.9999999999999999, -2.842170943040401e-14, 0)"/><path d="M 389 378.29998779296875 L 392 376.29998779296875 L 392 380.29998779296875 L 389 382.20001220703125 Z" fill-rule="evenodd" clip-rule="evenodd" fill="#FFD187" transform="matrix(0.9999999999999999, 0, 0, 0.9999999999999999, -2.842170943040401e-14, 0)"/><path d="M 389 378.29998779296875 L 364 393.3999938964844 L 364 402.70001220703125 L 389 382.20001220703125 Z" fill-rule="evenodd" clip-rule="evenodd" fill="#D49633" transform="matrix(0.9999999999999999, 0, 0, 0.9999999999999999, -2.842170943040401e-14, 0)"/><path d="M 364.6000061035156 402.70001220703125 L 367.8999938964844 400.79998779296875 L 391.79998779296875 380.29998779296875 L 388.5 382.20001220703125 Z" fill-rule="evenodd" clip-rule="evenodd" fill="#B37627" transform="matrix(0.9999999999999999, 0, 0, 0.9999999999999999, -2.842170943040401e-14, 0)"/><path d="M 362.29998779296875 355.5 L 354.8999938964844 351.20001220703125 L 362.29998779296875 347 L 369.70001220703125 351.20001220703125 Z" fill-rule="evenodd" clip-rule="evenodd" fill="#333333" transform="matrix(0.9999999999999999, 0, 0, 0.9999999999999999, -2.842170943040401e-14, 0)"/><path d="M 336 401.20001220703125 L 332 399.29998779296875 L 332 403.29998779296875 L 336 405.20001220703125 Z" fill-rule="evenodd" clip-rule="evenodd" fill="#FFD187" transform="matrix(0.9999999999999999, 0, 0, 0.9999999999999999, -2.842170943040401e-14, 0)"/><path d="M 336 401.20001220703125 L 360 416.3999938964844 L 360 425.70001220703125 L 336 405.20001220703125 Z" fill-rule="evenodd" clip-rule="evenodd" fill="#D49633" transform="matrix(0.9999999999999999, 0, 0, 0.9999999999999999, -2.842170943040401e-14, 0)"/><path d="M 360 425.70001220703125 L 356.70001220703125 423.79998779296875 L 332.79998779296875 403.29998779296875 L 336.1000061035156 405.20001220703125 Z" fill-rule="evenodd" clip-rule="evenodd" fill="#B37627" transform="matrix(0.9999999999999999, 0, 0, 0.9999999999999999, -2.842170943040401e-14, 0)"/><path d="M 336 445.20001220703125 L 332 443.3999938964844 L 332 447.29998779296875 L 336 449.20001220703125 Z" fill-rule="evenodd" clip-rule="evenodd" fill="#FFD187" transform="matrix(0.9999999999999999, 0, 0, 0.9999999999999999, -2.842170943040401e-14, 0)"/><path d="M 336 445.20001220703125 L 360 460.3999938964844 L 360 469.70001220703125 L 336 449.20001220703125 Z" fill-rule="evenodd" clip-rule="evenodd" fill="#D49633" transform="matrix(0.9999999999999999, 0, 0, 0.9999999999999999, -2.842170943040401e-14, 0)"/><path d="M 360 469.70001220703125 L 356.70001220703125 467.79998779296875 L 332.79998779296875 447.29998779296875 L 336.1000061035156 449.20001220703125 Z" fill-rule="evenodd" clip-rule="evenodd" fill="#B37627" transform="matrix(0.9999999999999999, 0, 0, 0.9999999999999999, -2.842170943040401e-14, 0)"/>
<path d="M 898.7000122070312 593.2999877929688 L 711.2000122070312 701.5999755859375 L 523.7000122070312 593.2999877929688 L 711.2000122070312 485 Z" fill-rule="evenodd" clip-rule="evenodd" fill="#FFE47A" transform="matrix(0.9999999999999999, 0, 0, 0.9999999999999999, -2.842170943040401e-14, 0)"/><path d="M 899 595.2999877929688 L 711 703.5 L 711 701.5999755859375 L 899 593.2999877929688 Z" fill-rule="evenodd" clip-rule="evenodd" fill="#E0C24C" transform="matrix(0.9999999999999999, 0, 0, 0.9999999999999999, -2.842170943040401e-14, 0)"/><path d="M 523 595.2999877929688 L 711 703.5 L 711 701.5999755859375 L 523 593.2999877929688 Z" fill-rule="evenodd" clip-rule="evenodd" fill="#C2A42E" transform="matrix(0.9999999999999999, 0, 0, 0.9999999999999999, -2.842170943040401e-14, 0)"/><path fill-rule="evenodd" clip-rule="evenodd" fill="#FFFFFF" d="M879.6,593.3l-168.4,97.3l-168.4-97.3L711.2,496L879.6,593.3z&#10;&#9;&#9; M875.7,593.3l-164.5,95l-164.5-95l164.5-95.1L875.7,593.3z" transform="matrix(0.9999999999999999, 0, 0, 0.9999999999999999, -2.842170943040401e-14, 0)"/><path d="M 759.9000244140625 593.2999877929688 L 711.2000122070312 621.4000244140625 L 662.5 593.2999877929688 L 711.2000122070312 565.2000122070312 Z" fill-rule="evenodd" clip-rule="evenodd" fill="#FFFFFF" transform="matrix(0.9999999999999999, 0, 0, 0.9999999999999999, -2.842170943040401e-14, 0)"/>
<path d="M 692.7999877929688 661.7999877929688 L 639 692.9000244140625 L 623.2000122070312 683.7999877929688 L 677 652.7000122070312 Z" fill-rule="evenodd" clip-rule="evenodd" fill="#F04B49" transform="matrix(0.9999999999999999, 0, 0, 0.9999999999999999, -2.842170943040401e-14, 0)"/><path d="M 693 700.7999877929688 L 639 731.9000244140625 L 639 692.9000244140625 L 693 661.9000244140625 Z" fill-rule="evenodd" clip-rule="evenodd" fill="#F87876" transform="matrix(0.9999999999999999, 0, 0, 0.9999999999999999, -2.842170943040401e-14, 0)"/><path d="M 623 722.7999877929688 L 639 731.9000244140625 L 639 692.9000244140625 L 623 683.7999877929688 Z" fill-rule="evenodd" clip-rule="evenodd" fill="#C53432" transform="matrix(0.9999999999999999, 0, 0, 0.9999999999999999, -2.842170943040401e-14, 0)"/><path d="M 565.2999877929688 588.2000122070312 L 511.5 619.2999877929688 L 495.70001220703125 610.2000122070312 L 549.5 579.0999755859375 Z" fill-rule="evenodd" clip-rule="evenodd" fill="#F04B49" transform="matrix(0.9999999999999999, 0, 0, 0.9999999999999999, -2.842170943040401e-14, 0)"/><path d="M 565 627.2000122070312 L 511 658.2999877929688 L 511 619.2999877929688 L 565 588.2000122070312 Z" fill-rule="evenodd" clip-rule="evenodd" fill="#F87876" transform="matrix(0.9999999999999999, 0, 0, 0.9999999999999999, -2.842170943040401e-14, 0)"/><path d="M 665 659.5999755859375 L 627.0999755859375 681.5999755859375 L 522.9000244140625 621.4000244140625 L 560.9000244140625 599.5 Z" fill-rule="evenodd" clip-rule="evenodd" fill="#C53432" transform="matrix(0.9999999999999999, 0, 0, 0.9999999999999999, -2.842170943040401e-14, 0)"/><path d="M 637.9000244140625 654.2000122070312 L 627.0999755859375 660.5 L 481.6000061035156 576.4000244140625 L 492.3999938964844 570.2000122070312 Z" fill-rule="evenodd" clip-rule="evenodd" fill="#F04B49" transform="matrix(0.9999999999999999, 0, 0, 0.9999999999999999, -2.842170943040401e-14, 0)"/><path d="M 637 732.5999755859375 L 628 738.7999877929688 L 628 660.5 L 637 654.2000122070312 Z" fill-rule="evenodd" clip-rule="evenodd" fill="#F87876" transform="matrix(0.9999999999999999, 0, 0, 0.9999999999999999, -2.842170943040401e-14, 0)"/><path d="M 482 654.7999877929688 L 628 738.7999877929688 L 628 660.5 L 482 576.4000244140625 Z" fill-rule="evenodd" clip-rule="evenodd" fill="#C53432" transform="matrix(0.9999999999999999, 0, 0, 0.9999999999999999, -2.842170943040401e-14, 0)"/>
<path d="M 697.7000122070312 338.8999938964844 L 783.4000244140625 388.3999938964844 L 854.7999877929688 347.1000061035156 L 769.0999755859375 297.6000061035156 Z" fill-rule="evenodd" clip-rule="evenodd" fill="#83410F" transform="matrix(0.9999999999999999, 0, 0, 0.9999999999999999, -2.842170943040401e-14, 0)"/><path d="M 698 347.29998779296875 L 783 396.79998779296875 L 783 388.3999938964844 L 698 338.8999938964844 Z" fill-rule="evenodd" clip-rule="evenodd" fill="#A3571D" transform="matrix(0.9999999999999999, 0, 0, 0.9999999999999999, -2.842170943040401e-14, 0)"/><path d="M 854 355.5 L 783 396.79998779296875 L 783 388.3999938964844 L 854 347.1000061035156 Z" fill-rule="evenodd" clip-rule="evenodd" fill="#5A3519" transform="matrix(0.9999999999999999, 0, 0, 0.9999999999999999, -2.842170943040401e-14, 0)"/><path d="M 704 417.3999938964844 L 783 463.29998779296875 L 783 396.79998779296875 L 704 350.8999938964844 Z" fill-rule="evenodd" clip-rule="evenodd" fill="#83410F" transform="matrix(0.9999999999999999, 0, 0, 0.9999999999999999, -2.842170943040401e-14, 0)"/><path d="M 851 424.70001220703125 L 783 463.29998779296875 L 783 396.79998779296875 L 851 358.20001220703125 Z" fill-rule="evenodd" clip-rule="evenodd" fill="#4C2D15" transform="matrix(0.9999999999999999, 0, 0, 0.9999999999999999, -2.842170943040401e-14, 0)"/><path fill="#9E4C0C" d="M777,454.5v-56.3l-29-16.9v56.3L777,454.5z M776,453.1L748,437v-54.5l28,16.1V453.1z" transform="matrix(0.9999999999999999, 0, 0, 0.9999999999999999, -2.842170943040401e-14, 0)"/><path fill="#4C2D15" d="M777,454v-56.3l-29-17V437L777,454z M777,452.7l-28-16.1v-54.5l28,16.1V452.7z" transform="matrix(0.9999999999999999, 0, 0, 0.9999999999999999, -2.842170943040401e-14, 0)"/><path fill="#9E4C0C" d="M740,433.4v-56.3l-29-17v56.3L740,433.4z M739,432.1L712,416v-54.5l27,16.1V432.1z" transform="matrix(0.9999999999999999, 0, 0, 0.9999999999999999, -2.842170943040401e-14, 0)"/><path fill="#4C2D15" d="M740,433v-56.3l-28-17V416L740,433z M740,431.6l-28-16.1V361l28,16.1V431.6z" transform="matrix(0.9999999999999999, 0, 0, 0.9999999999999999, -2.842170943040401e-14, 0)"/><path fill-rule="evenodd" clip-rule="evenodd" fill="#0B0B0B" d="M751.4,413.4c0.7,0,1.3-0.6,1.3-1.3s-0.6-1.3-1.3-1.3&#10;&#9;&#9;c-0.7,0-1.3,0.6-1.3,1.3S750.7,413.4,751.4,413.4L751.4,413.4z" transform="matrix(0.9999999999999999, 0, 0, 0.9999999999999999, -2.842170943040401e-14, 0)"/><path fill-rule="evenodd" clip-rule="evenodd" fill="#222222" d="M750,414.6c1,0,2-0.9,2-2s-0.9-2-2-2c-1.1,0-2,0.9-2,2&#10;&#9;&#9;S748.9,414.6,750,414.6L750,414.6z" transform="matrix(0.9999999999999999, 0, 0, 0.9999999999999999, -2.842170943040401e-14, 0)"/><path fill-rule="evenodd" clip-rule="evenodd" fill="#0B0B0B" d="M737.4,405.8c0.7,0,1.3-0.6,1.3-1.3s-0.6-1.3-1.3-1.3&#10;&#9;&#9;c-0.7,0-1.3,0.6-1.3,1.3S736.7,405.8,737.4,405.8L737.4,405.8z" transform="matrix(0.9999999999999999, 0, 0, 0.9999999999999999, -2.842170943040401e-14, 0)"/><path fill-rule="evenodd" clip-rule="evenodd" fill="#222222" d="M736,407c1.1,0,2-0.9,2-2c0-1.1-0.9-2-2-2c-1.1,0-2,0.9-2,2&#10;&#9;&#9;C734.1,406.1,735,407,736,407L736,407z" transform="matrix(0.9999999999999999, 0, 0, 0.9999999999999999, -2.842170943040401e-14, 0)"/>
<path d="M 790.9000244140625 201.60000610351562 L 825.5999755859375 221.6999969482422 L 829 219.6999969482422 L 794.2000122070312 199.60000610351562 Z" fill-rule="evenodd" clip-rule="evenodd" fill="#333333" transform="matrix(0.9999999999999999, 0, 0, 0.9999999999999999, -2.842170943040401e-14, 0)"/><path d="M 791 240.60000610351562 L 825 260.70001220703125 L 825 221.6999969482422 L 791 201.60000610351562 Z" fill-rule="evenodd" clip-rule="evenodd" fill="#1A1A1A" transform="matrix(0.9999999999999999, 0, 0, 0.9999999999999999, -2.842170943040401e-14, 0)"/><path d="M 825 260.70001220703125 L 825 221.6999969482422 L 829 219.6999969482422 L 829 258.70001220703125 Z" fill-rule="evenodd" clip-rule="evenodd" fill="#4D4D4D" transform="matrix(0.9999999999999999, 0, 0, 0.9999999999999999, -2.842170943040401e-14, 0)"/><path d="M 796 239.89999389648438 L 821 254.5 L 821 222.39999389648438 L 796 207.8000030517578 Z" fill-rule="evenodd" clip-rule="evenodd" fill="#CC99FF" transform="matrix(0.9999999999999999, 0, 0, 0.9999999999999999, -2.842170943040401e-14, 0)"/>
<path d="M 1004.5999755859375 328.5 L 1039.300048828125 348.5 L 1042.699951171875 346.6000061035156 L 1008 326.5 Z" fill-rule="evenodd" clip-rule="evenodd" fill="#333333" transform="matrix(0.9999999999999999, 0, 0, 0.9999999999999999, -2.842170943040401e-14, 0)"/><path d="M 1004 367.5 L 1040 387.6000061035156 L 1040 348.5 L 1004 328.5 Z" fill-rule="evenodd" clip-rule="evenodd" fill="#1A1A1A" transform="matrix(0.9999999999999999, 0, 0, 0.9999999999999999, -2.842170943040401e-14, 0)"/><path d="M 1040 387.6000061035156 L 1040 348.5 L 1043 346.6000061035156 L 1043 385.6000061035156 Z" fill-rule="evenodd" clip-rule="evenodd" fill="#4D4D4D" transform="matrix(0.9999999999999999, 0, 0, 0.9999999999999999, -2.842170943040401e-14, 0)"/><path d="M 1009 366.79998779296875 L 1035 381.29998779296875 L 1035 349.20001220703125 L 1009 334.70001220703125 Z" fill-rule="evenodd" clip-rule="evenodd" fill="#CC99FF" transform="matrix(0.9999999999999999, 0, 0, 0.9999999999999999, -2.842170943040401e-14, 0)"/>
<path d="M 978.7999877929688 516.0999755859375 L 925.2000122070312 547 L 789.9000244140625 468.8999938964844 L 843.5 438 Z" fill-rule="evenodd" clip-rule="evenodd" fill="#A1752F" transform="matrix(0.9999999999999999, 0, 0, 0.9999999999999999, -2.842170943040401e-14, 0)"/><path d="M 929 543.4000244140625 L 926 546 L 926 501 L 929 498.29998779296875 Z" fill-rule="evenodd" clip-rule="evenodd" fill="#4D4D4D" transform="matrix(0.9999999999999999, 0, 0, 0.9999999999999999, -2.842170943040401e-14, 0)"/><path d="M 921 543.4000244140625 L 926 546 L 926 501 L 921 498.29998779296875 Z" fill-rule="evenodd" clip-rule="evenodd" fill="#1A1A1A" transform="matrix(0.9999999999999999, 0, 0, 0.9999999999999999, -2.842170943040401e-14, 0)"/><path d="M 976 516.5 L 972 519.0999755859375 L 972 474 L 976 471.3999938964844 Z" fill-rule="evenodd" clip-rule="evenodd" fill="#4D4D4D" transform="matrix(0.9999999999999999, 0, 0, 0.9999999999999999, -2.842170943040401e-14, 0)"/><path d="M 967 516.5 L 972 519.0999755859375 L 972 474 L 967 471.3999938964844 Z" fill-rule="evenodd" clip-rule="evenodd" fill="#1A1A1A" transform="matrix(0.9999999999999999, 0, 0, 0.9999999999999999, -2.842170943040401e-14, 0)"/><path d="M 803 470 L 798 472.70001220703125 L 798 427.6000061035156 L 803 424.8999938964844 Z" fill-rule="evenodd" clip-rule="evenodd" fill="#4D4D4D" transform="matrix(0.9999999999999999, 0, 0, 0.9999999999999999, -2.842170943040401e-14, 0)"/><path d="M 793 470 L 798 472.70001220703125 L 798 427.6000061035156 L 793 424.8999938964844 Z" fill-rule="evenodd" clip-rule="evenodd" fill="#1A1A1A" transform="matrix(0.9999999999999999, 0, 0, 0.9999999999999999, -2.842170943040401e-14, 0)"/><path d="M 978.7999877929688 459 L 925.2000122070312 489.8999938964844 L 789.9000244140625 411.79998779296875 L 843.5 380.8999938964844 Z" fill-rule="evenodd" clip-rule="evenodd" fill="#333333" transform="matrix(0.9999999999999999, 0, 0, 0.9999999999999999, -2.842170943040401e-14, 0)"/><path d="M 978 470 L 926 501 L 926 489.8999938964844 L 978 459 Z" fill-rule="evenodd" clip-rule="evenodd" fill="#4D4D4D" transform="matrix(0.9999999999999999, 0, 0, 0.9999999999999999, -2.842170943040401e-14, 0)"/><path d="M 789 422.79998779296875 L 926 501 L 926 489.8999938964844 L 789 411.79998779296875 Z" fill-rule="evenodd" clip-rule="evenodd" fill="#1A1A1A" transform="matrix(0.9999999999999999, 0, 0, 0.9999999999999999, -2.842170943040401e-14, 0)"/>
<path d="M 896 443.1000061035156 L 859 422.20001220703125 L 859 428.79998779296875 L 896 449.70001220703125 Z" fill-rule="evenodd" clip-rule="evenodd" fill="#1A1A1A" transform="matrix(0.9999999999999999, 0, 0, 0.9999999999999999, -2.842170943040401e-14, 0)"/><path d="M 896 443.1000061035156 L 921 429.1000061035156 L 921 435.70001220703125 L 896 449.70001220703125 Z" fill-rule="evenodd" clip-rule="evenodd" fill="#4D4D4D" transform="matrix(0.9999999999999999, 0, 0, 0.9999999999999999, -2.842170943040401e-14, 0)"/><path d="M 896 443.1000061035156 L 920.2000122070312 429.1000061035156 L 884 408.20001220703125 L 859.7000122070312 422.20001220703125 Z" fill-rule="evenodd" clip-rule="evenodd" fill="#333333" transform="matrix(0.9999999999999999, 0, 0, 0.9999999999999999, -2.842170943040401e-14, 0)"/><path d="M 900 422.5 L 875 408.29998779296875 L 875 420.29998779296875 L 900 434.5 Z" fill-rule="evenodd" clip-rule="evenodd" fill="#1A1A1A" transform="matrix(0.9999999999999999, 0, 0, 0.9999999999999999, -2.842170943040401e-14, 0)"/><path d="M 900 422.5 L 905 419.5 L 905 431.5 L 900 434.5 Z" fill-rule="evenodd" clip-rule="evenodd" fill="#4D4D4D" transform="matrix(0.9999999999999999, 0, 0, 0.9999999999999999, -2.842170943040401e-14, 0)"/><path d="M 934 371 L 829 309.8999938964844 L 829 381.3999938964844 L 934 442.3999938964844 Z" fill-rule="evenodd" clip-rule="evenodd" fill="#1A1A1A" transform="matrix(0.9999999999999999, 0, 0, 0.9999999999999999, -2.842170943040401e-14, 0)"/><path d="M 934 371 L 939 367.8999938964844 L 939 439.3999938964844 L 934 442.3999938964844 Z" fill-rule="evenodd" clip-rule="evenodd" fill="#4D4D4D" transform="matrix(0.9999999999999999, 0, 0, 0.9999999999999999, -2.842170943040401e-14, 0)"/><path d="M 934 371 L 939.2000122070312 367.8999938964844 L 833.5999755859375 306.8999938964844 L 828.4000244140625 309.8999938964844 Z" fill-rule="evenodd" clip-rule="evenodd" fill="#333333" transform="matrix(0.9999999999999999, 0, 0, 0.9999999999999999, -2.842170943040401e-14, 0)"/><path d="M 929 371.3999938964844 L 834 316.20001220703125 L 834 380.8999938964844 L 929 436.1000061035156 Z" fill-rule="evenodd" clip-rule="evenodd" fill="#72DAD3" transform="matrix(0.9999999999999999, 0, 0, 0.9999999999999999, -2.842170943040401e-14, 0)"/>
<path d="M 927.5 478 L 1013.2000122070312 527.5 L 1084.699951171875 486.20001220703125 L 999 436.70001220703125 Z" fill-rule="evenodd" clip-rule="evenodd" fill="#83410F" transform="matrix(0.9999999999999999, 0, 0, 0.9999999999999999, -2.842170943040401e-14, 0)"/><path d="M 928 486.3999938964844 L 1014 535.9000244140625 L 1014 527.5 L 928 478 Z" fill-rule="evenodd" clip-rule="evenodd" fill="#A3571D" transform="matrix(0.9999999999999999, 0, 0, 0.9999999999999999, -2.842170943040401e-14, 0)"/><path d="M 1085 494.6000061035156 L 1014 535.9000244140625 L 1014 527.5 L 1085 486.20001220703125 Z" fill-rule="evenodd" clip-rule="evenodd" fill="#5A3519" transform="matrix(0.9999999999999999, 0, 0, 0.9999999999999999, -2.842170943040401e-14, 0)"/><path d="M 934 556.5 L 1014 602.4000244140625 L 1014 535.9000244140625 L 934 490 Z" fill-rule="evenodd" clip-rule="evenodd" fill="#83410F" transform="matrix(0.9999999999999999, 0, 0, 0.9999999999999999, -2.842170943040401e-14, 0)"/><path d="M 1080 563.7999877929688 L 1014 602.4000244140625 L 1014 535.9000244140625 L 1080 497.29998779296875 Z" fill-rule="evenodd" clip-rule="evenodd" fill="#4C2D15" transform="matrix(0.9999999999999999, 0, 0, 0.9999999999999999, -2.842170943040401e-14, 0)"/><path fill="#9E4C0C" d="M1006,593.5v-56.3l-29-17v56.3L1006,593.5z M1005,592.2l-27-16.1v-54.5l27,16.1V592.2z" transform="matrix(0.9999999999999999, 0, 0, 0.9999999999999999, -2.842170943040401e-14, 0)"/><path fill="#4C2D15" d="M1008,593.1v-56.3l-30-17v56.3L1008,593.1z M1006,591.7l-28-16.1v-54.5l28,16.1V591.7z" transform="matrix(0.9999999999999999, 0, 0, 0.9999999999999999, -2.842170943040401e-14, 0)"/><path fill="#9E4C0C" d="M970,572.5v-56.3l-30-17v56.3L970,572.5z M970,571.2l-28-16.1v-54.5l28,16.1V571.2z" transform="matrix(0.9999999999999999, 0, 0, 0.9999999999999999, -2.842170943040401e-14, 0)"/><path fill="#4C2D15" d="M971,572.1v-56.3l-29-17v56.3L971,572.1z M970,570.7l-27-16.1v-54.5l27,16.1V570.7z" transform="matrix(0.9999999999999999, 0, 0, 0.9999999999999999, -2.842170943040401e-14, 0)"/><path fill-rule="evenodd" clip-rule="evenodd" fill="#0B0B0B" d="M981.3,552.5c0.7,0,1.3-0.6,1.3-1.3c0-0.7-0.6-1.3-1.3-1.3&#10;&#9;&#9;c-0.7,0-1.3,0.6-1.3,1.3C980,551.9,980.6,552.5,981.3,552.5L981.3,552.5z" transform="matrix(0.9999999999999999, 0, 0, 0.9999999999999999, -2.842170943040401e-14, 0)"/><path fill-rule="evenodd" clip-rule="evenodd" fill="#222222" d="M979.9,553.7c1.1,0,2-0.9,2-2s-0.9-2-2-2s-2,0.9-2,2&#10;&#9;&#9;S978.8,553.7,979.9,553.7L979.9,553.7z" transform="matrix(0.9999999999999999, 0, 0, 0.9999999999999999, -2.842170943040401e-14, 0)"/><path fill-rule="evenodd" clip-rule="evenodd" fill="#0B0B0B" d="M967.3,544.9c0.7,0,1.3-0.6,1.3-1.3c0-0.7-0.6-1.3-1.3-1.3&#10;&#9;&#9;c-0.7,0-1.3,0.6-1.3,1.3C966.1,544.3,966.6,544.9,967.3,544.9L967.3,544.9z" transform="matrix(0.9999999999999999, 0, 0, 0.9999999999999999, -2.842170943040401e-14, 0)"/><path fill-rule="evenodd" clip-rule="evenodd" fill="#222222" d="M965.9,546.1c1.1,0,2-0.9,2-2c0-1.1-0.9-2-2-2s-2,0.9-2,2&#10;&#9;&#9;C964,545.2,964.8,546.1,965.9,546.1L965.9,546.1z" transform="matrix(0.9999999999999999, 0, 0, 0.9999999999999999, -2.842170943040401e-14, 0)"/>
<path d="M 1100 596.4000244140625 L 1076 582.5999755859375 L 1076 609.4000244140625 L 1100 623.2000122070312 Z" fill-rule="evenodd" clip-rule="evenodd" fill="#1A1A1A" transform="matrix(0.9999999999999999, 0, 0, 0.9999999999999999, -2.842170943040401e-14, 0)"/><path d="M 1100 596.4000244140625 L 1124 582.5999755859375 L 1124 609.4000244140625 L 1100 623.2000122070312 Z" fill-rule="evenodd" clip-rule="evenodd" fill="#4D4D4D" transform="matrix(0.9999999999999999, 0, 0, 0.9999999999999999, -2.842170943040401e-14, 0)"/><path d="M 1100.199951171875 596.4000244140625 L 1124 582.5999755859375 L 1100.199951171875 568.7999877929688 L 1076.300048828125 582.5999755859375 Z" fill-rule="evenodd" clip-rule="evenodd" fill="#333333" transform="matrix(0.9999999999999999, 0, 0, 0.9999999999999999, -2.842170943040401e-14, 0)"/><path d="M 1100 409 L 1092 404.70001220703125 L 1092 583.0999755859375 L 1100 587.4000244140625 Z" fill-rule="evenodd" clip-rule="evenodd" fill="#D49633" transform="matrix(0.9999999999999999, 0, 0, 0.9999999999999999, -2.842170943040401e-14, 0)"/><path d="M 1100 409 L 1107 404.70001220703125 L 1107 583.0999755859375 L 1100 587.4000244140625 Z" fill-rule="evenodd" clip-rule="evenodd" fill="#FFD187" transform="matrix(0.9999999999999999, 0, 0, 0.9999999999999999, -2.842170943040401e-14, 0)"/><path d="M 1100 405.5 L 1076 391.70001220703125 L 1076 514.5999755859375 L 1100 528.4000244140625 Z" fill-rule="evenodd" clip-rule="evenodd" fill="#D6D689" transform="matrix(0.9999999999999999, 0, 0, 0.9999999999999999, -2.842170943040401e-14, 0)"/><path d="M 1100 405.5 L 1124 391.70001220703125 L 1124 514.5999755859375 L 1100 528.4000244140625 Z" fill-rule="evenodd" clip-rule="evenodd" fill="#FFFFCC" transform="matrix(0.9999999999999999, 0, 0, 0.9999999999999999, -2.842170943040401e-14, 0)"/><path d="M 1100.199951171875 405.5 L 1124 391.70001220703125 L 1100.199951171875 377.8999938964844 L 1076.300048828125 391.70001220703125 Z" fill-rule="evenodd" clip-rule="evenodd" fill="#EBEBA4" transform="matrix(0.9999999999999999, 0, 0, 0.9999999999999999, -2.842170943040401e-14, 0)"/><path d="M 1100 405.5 L 1076 391.70001220703125 L 1076 399.79998779296875 L 1100 413.6000061035156 Z" fill-rule="evenodd" clip-rule="evenodd" fill="#1A1A1A" transform="matrix(0.9999999999999999, 0, 0, 0.9999999999999999, -2.842170943040401e-14, 0)"/><path d="M 1100 405.5 L 1124 391.70001220703125 L 1124 399.79998779296875 L 1100 413.6000061035156 Z" fill-rule="evenodd" clip-rule="evenodd" fill="#4D4D4D" transform="matrix(0.9999999999999999, 0, 0, 0.9999999999999999, -2.842170943040401e-14, 0)"/><path d="M 1100 520.2999877929688 L 1076 506.6000061035156 L 1076 514.5999755859375 L 1100 528.4000244140625 Z" fill-rule="evenodd" clip-rule="evenodd" fill="#1A1A1A" transform="matrix(0.9999999999999999, 0, 0, 0.9999999999999999, -2.842170943040401e-14, 0)"/><path d="M 1100 520.2999877929688 L 1124 506.6000061035156 L 1124 514.5999755859375 L 1100 528.4000244140625 Z" fill-rule="evenodd" clip-rule="evenodd" fill="#4D4D4D" transform="matrix(0.9999999999999999, 0, 0, 0.9999999999999999, -2.842170943040401e-14, 0)"/>
<path d="M 1004 487.8999938964844 L 981 474.1000061035156 L 981 483.6000061035156 L 1004 497.3999938964844 Z" fill-rule="evenodd" clip-rule="evenodd" fill="#246A47" transform="matrix(0.9999999999999999, 0, 0, 0.9999999999999999, -2.842170943040401e-14, 0)"/><path d="M 1004 487.8999938964844 L 1024 476.6000061035156 L 1024 486.1000061035156 L 1004 497.3999938964844 Z" fill-rule="evenodd" clip-rule="evenodd" fill="#5DC993" transform="matrix(0.9999999999999999, 0, 0, 0.9999999999999999, -2.842170943040401e-14, 0)"/><path d="M 1004.5999755859375 487.8999938964844 L 1024.199951171875 476.6000061035156 L 1000.2999877929688 462.79998779296875 L 980.7000122070312 474.1000061035156 Z" fill-rule="evenodd" clip-rule="evenodd" fill="#339966" transform="matrix(0.9999999999999999, 0, 0, 0.9999999999999999, -2.842170943040401e-14, 0)"/><path d="M 1008 488.79998779296875 L 1024 479 L 1024 483.70001220703125 L 1008 493.5 Z" fill-rule="evenodd" clip-rule="evenodd" fill="#FFFFCC" transform="matrix(0.9999999999999999, 0, 0, 0.9999999999999999, -2.842170943040401e-14, 0)"/><path d="M 991.4000244140625 480.29998779296875 L 1011 469 L 1004.7999877929688 465.3999938964844 L 985.2000122070312 476.70001220703125 Z" fill-rule="evenodd" clip-rule="evenodd" fill="#CCFF66" transform="matrix(0.9999999999999999, 0, 0, 0.9999999999999999, -2.842170943040401e-14, 0)"/><path d="M 995 482.3999938964844 L 1014.5999755859375 471.1000061035156 L 1013.0999755859375 470.20001220703125 L 993.5 481.5 Z" fill-rule="evenodd" clip-rule="evenodd" fill="#CCFF66" transform="matrix(0.9999999999999999, 0, 0, 0.9999999999999999, -2.842170943040401e-14, 0)"/><path d="M 983 475.3999938964844 L 982 474.8999938964844 L 982 484.5 L 983 484.8999938964844 Z" fill-rule="evenodd" clip-rule="evenodd" fill="#999966" transform="matrix(0.9999999999999999, 0, 0, 0.9999999999999999, -2.842170943040401e-14, 0)"/><path d="M 1003 486.8999938964844 L 1002 486.5 L 1002 496 L 1003 496.5 Z" fill-rule="evenodd" clip-rule="evenodd" fill="#999966" transform="matrix(0.9999999999999999, 0, 0, 0.9999999999999999, -2.842170943040401e-14, 0)"/><path d="M 1000 477.79998779296875 L 976 464 L 976 473.5 L 1000 487.29998779296875 Z" fill-rule="evenodd" clip-rule="evenodd" fill="#302469" transform="matrix(0.9999999999999999, 0, 0, 0.9999999999999999, -2.842170943040401e-14, 0)"/><path d="M 1000 477.79998779296875 L 1020 466.5 L 1020 476 L 1000 487.29998779296875 Z" fill-rule="evenodd" clip-rule="evenodd" fill="#705CC8" transform="matrix(0.9999999999999999, 0, 0, 0.9999999999999999, -2.842170943040401e-14, 0)"/><path d="M 1000.0999755859375 477.79998779296875 L 1019.7000122070312 466.5 L 995.7999877929688 452.70001220703125 L 976.2000122070312 464 Z" fill-rule="evenodd" clip-rule="evenodd" fill="#453398" transform="matrix(0.9999999999999999, 0, 0, 0.9999999999999999, -2.842170943040401e-14, 0)"/><path d="M 1003 478.70001220703125 L 1020 468.79998779296875 L 1020 473.6000061035156 L 1003 483.3999938964844 Z" fill-rule="evenodd" clip-rule="evenodd" fill="#CBFFEE" transform="matrix(0.9999999999999999, 0, 0, 0.9999999999999999, -2.842170943040401e-14, 0)"/><path d="M 987 470.1000061035156 L 1006.5 458.79998779296875 L 1000.4000244140625 455.29998779296875 L 980.7999877929688 466.6000061035156 Z" fill-rule="evenodd" clip-rule="evenodd" fill="#65FCFF" transform="matrix(0.9999999999999999, 0, 0, 0.9999999999999999, -2.842170943040401e-14, 0)"/><path d="M 990.5999755859375 472.20001220703125 L 1010.2000122070312 460.8999938964844 L 1008.7000122070312 460.1000061035156 L 989.0999755859375 471.3999938964844 Z" fill-rule="evenodd" clip-rule="evenodd" fill="#65FCFF" transform="matrix(0.9999999999999999, 0, 0, 0.9999999999999999, -2.842170943040401e-14, 0)"/><path d="M 978 465.29998779296875 L 978 464.79998779296875 L 978 474.29998779296875 L 978 474.79998779296875 Z" fill-rule="evenodd" clip-rule="evenodd" fill="#669888" transform="matrix(0.9999999999999999, 0, 0, 0.9999999999999999, -2.842170943040401e-14, 0)"/><path d="M 998 476.79998779296875 L 998 476.3999938964844 L 998 485.8999938964844 L 998 486.29998779296875 Z" fill-rule="evenodd" clip-rule="evenodd" fill="#669888" transform="matrix(0.9999999999999999, 0, 0, 0.9999999999999999, -2.842170943040401e-14, 0)"/>
<path d="M 578.0999755859375 375.6000061035156 L 530 403.6000061035156 L 530 396.6000061035156 L 572.2000122070312 372.1000061035156 Z" fill-rule="evenodd" clip-rule="evenodd" fill="#FAE4CD" transform="matrix(0.9999999999999999, 0, 0, 0.9999999999999999, -2.842170943040401e-14, 0)"/><path d="M 571 372.1000061035156 L 530 396.6000061035156 L 530 242.3000030517578 L 571 217.8000030517578 Z" fill-rule="evenodd" clip-rule="evenodd" fill="#FFFFFF" transform="matrix(0.9999999999999999, 0, 0, 0.9999999999999999, -2.842170943040401e-14, 0)"/><path d="M 571 372.1000061035156 L 577 375.6000061035156 L 577 214.3000030517578 L 571 217.8000030517578 Z" fill-rule="evenodd" clip-rule="evenodd" fill="#FAE4CD" transform="matrix(0.9999999999999999, 0, 0, 0.9999999999999999, -2.842170943040401e-14, 0)"/><path d="M 524.0999755859375 406.79998779296875 L 476 434.79998779296875 L 476 427.79998779296875 L 518.2000122070312 403.29998779296875 Z" fill-rule="evenodd" clip-rule="evenodd" fill="#FAE4CD" transform="matrix(0.9999999999999999, 0, 0, 0.9999999999999999, -2.842170943040401e-14, 0)"/><path d="M 517 403.29998779296875 L 476 427.79998779296875 L 476 273.5 L 517 249 Z" fill-rule="evenodd" clip-rule="evenodd" fill="#FFFFFF" transform="matrix(0.9999999999999999, 0, 0, 0.9999999999999999, -2.842170943040401e-14, 0)"/><path d="M 517 403.29998779296875 L 523 406.79998779296875 L 523 245.5 L 517 249 Z" fill-rule="evenodd" clip-rule="evenodd" fill="#FAE4CD" transform="matrix(0.9999999999999999, 0, 0, 0.9999999999999999, -2.842170943040401e-14, 0)"/><path d="M 468.8999938964844 438.3999938964844 L 420.29998779296875 466.3999938964844 L 420.3999938964844 459.3999938964844 L 462.79998779296875 434.8999938964844 Z" fill-rule="evenodd" clip-rule="evenodd" fill="#FAE4CD" transform="matrix(0.9999999999999999, 0, 0, 0.9999999999999999, -2.842170943040401e-14, 0)"/><path d="M 463 434.8999938964844 L 420 459.3999938964844 L 420 305.1000061035156 L 463 280.6000061035156 Z" fill-rule="evenodd" clip-rule="evenodd" fill="#FFFFFF" transform="matrix(0.9999999999999999, 0, 0, 0.9999999999999999, -2.842170943040401e-14, 0)"/><path d="M 463 434.8999938964844 L 468 438.3999938964844 L 468 277.1000061035156 L 463 280.6000061035156 Z" fill-rule="evenodd" clip-rule="evenodd" fill="#FAE4CD" transform="matrix(0.9999999999999999, 0, 0, 0.9999999999999999, -2.842170943040401e-14, 0)"/>
<path d="M 395 304.8999938964844 L 414 293.70001220703125 L 414 509.70001220703125 L 395 520.7999877929688 Z" fill-rule="evenodd" clip-rule="evenodd" fill="#DFFF9E" transform="matrix(0.9999999999999999, 0, 0, 0.9999999999999999, -2.842170943040401e-14, 0)"/><path d="M 395 304.8999938964844 L 390 302 L 390 518 L 395 520.7999877929688 Z" fill-rule="evenodd" clip-rule="evenodd" fill="#A9DE40" transform="matrix(0.9999999999999999, 0, 0, 0.9999999999999999, -5.684341886080802e-14, 0)"/><path fill-rule="evenodd" clip-rule="evenodd" fill="#DFFF9E" d="M414.2,293.7l38.7-22.4c0,43.8-19.8,85.8-38.7,118.6L394.8,401&#10;&#9;&#9;&#9;L414.2,293.7z" transform="matrix(0.9999999999999999, 0, 0, 0.9999999999999999, -5.684341886080802e-14, 0)"/>
<path d="M 592 287.3999938964844 L 587 284.5 L 587 404.29998779296875 L 592 407.20001220703125 Z" fill-rule="evenodd" clip-rule="evenodd" fill="#A9DE40" transform="matrix(0.9999999999999999, 0, 0, 0.9999999999999999, -2.842170943040401e-14, 0)"/><path d="M 592 191.1999969482422 L 611 180 L 611 396 L 592 407.20001220703125 Z" fill-rule="evenodd" clip-rule="evenodd" fill="#DFFF9E" transform="matrix(0.9999999999999999, 0, 0, 0.9999999999999999, -2.842170943040401e-14, 0)"/><path fill-rule="evenodd" clip-rule="evenodd" fill="#A9DE40" d="M552.9,213.5l-5-2.8c0,31.2,18.8,58,38.7,73.8l5,2.9L552.9,213.5z&#10;&#9;&#9;" transform="matrix(0.9999999999999999, 0, 0, 0.9999999999999999, -2.842170943040401e-14, 0)"/><path fill-rule="evenodd" clip-rule="evenodd" fill="#DFFF9E" d="M552.9,213.5l38.7-22.4l19.4,85l-19.4,11.2&#10;&#9;&#9;C577.4,279.2,552.9,249.6,552.9,213.5L552.9,213.5z" transform="matrix(0.9999999999999999, 0, 0, 0.9999999999999999, -2.842170943040401e-14, 0)"/>
<path d="M 388 302.6000061035156 L 382.70001220703125 299.5 L 612.7999877929688 166.6999969482422 L 618.0999755859375 169.6999969482422 Z" fill-rule="evenodd" clip-rule="evenodd" fill="#333333" transform="matrix(0.9999999999999999, 0, 0, 0.9999999999999999, -2.842170943040401e-14, 0)"/><path d="M 387 302.6000061035156 L 382 299.5 L 382 307.3999938964844 L 387 310.5 Z" fill-rule="evenodd" clip-rule="evenodd" fill="#1A1A1A" transform="matrix(0.9999999999999999, 0, 0, 0.9999999999999999, -2.842170943040401e-14, 0)"/><path d="M 387 302.6000061035156 L 618 169.6999969482422 L 618 177.60000610351562 L 387 310.5 Z" fill-rule="evenodd" clip-rule="evenodd" fill="#4D4D4D" transform="matrix(0.9999999999999999, 0, 0, 0.9999999999999999, -2.842170943040401e-14, 0)"/>
<path d="M 805.5 744.2000122070312 L 859.0999755859375 775.2000122070312 L 994.2999877929688 697.0999755859375 L 940.7999877929688 666.0999755859375 Z" fill-rule="evenodd" clip-rule="evenodd" fill="#A1752F" transform="matrix(0.9999999999999999, 0, 0, 0.9999999999999999, -2.842170943040401e-14, 0)"/><path d="M 854 770.9000244140625 L 859 773.5 L 859 756.9000244140625 L 854 754.2000122070312 Z" fill-rule="evenodd" clip-rule="evenodd" fill="#4D4D4D" transform="matrix(0.9999999999999999, 0, 0, 0.9999999999999999, -2.842170943040401e-14, 0)"/><path d="M 864 770.9000244140625 L 859 773.5 L 859 756.9000244140625 L 864 754.2000122070312 Z" fill-rule="evenodd" clip-rule="evenodd" fill="#1A1A1A" transform="matrix(0.9999999999999999, 0, 0, 0.9999999999999999, -2.842170943040401e-14, 0)"/><path d="M 808 744 L 813 746.5999755859375 L 813 729.9000244140625 L 808 727.2999877929688 Z" fill-rule="evenodd" clip-rule="evenodd" fill="#4D4D4D" transform="matrix(0.9999999999999999, 0, 0, 0.9999999999999999, -2.842170943040401e-14, 0)"/><path d="M 818 744 L 813 746.5999755859375 L 813 729.9000244140625 L 818 727.2999877929688 Z" fill-rule="evenodd" clip-rule="evenodd" fill="#1A1A1A" transform="matrix(0.9999999999999999, 0, 0, 0.9999999999999999, -2.842170943040401e-14, 0)"/><path d="M 982 697.5 L 986 700.0999755859375 L 986 683.4000244140625 L 982 680.7999877929688 Z" fill-rule="evenodd" clip-rule="evenodd" fill="#4D4D4D" transform="matrix(0.9999999999999999, 0, 0, 0.9999999999999999, -2.842170943040401e-14, 0)"/><path d="M 991 697.5 L 986 700.0999755859375 L 986 683.4000244140625 L 991 680.7999877929688 Z" fill-rule="evenodd" clip-rule="evenodd" fill="#1A1A1A" transform="matrix(0.9999999999999999, 0, 0, 0.9999999999999999, -2.842170943040401e-14, 0)"/><path d="M 805.5 714.9000244140625 L 859.0999755859375 745.7999877929688 L 994.2999877929688 667.7000122070312 L 940.7999877929688 636.7999877929688 Z" fill-rule="evenodd" clip-rule="evenodd" fill="#333333" transform="matrix(0.9999999999999999, 0, 0, 0.9999999999999999, -2.842170943040401e-14, 0)"/><path d="M 805 725.9000244140625 L 859 756.9000244140625 L 859 745.7999877929688 L 805 714.9000244140625 Z" fill-rule="evenodd" clip-rule="evenodd" fill="#4D4D4D" transform="matrix(0.9999999999999999, 0, 0, 0.9999999999999999, -2.842170943040401e-14, 0)"/><path d="M 994 678.7000122070312 L 859 756.9000244140625 L 859 745.7999877929688 L 994 667.7000122070312 Z" fill-rule="evenodd" clip-rule="evenodd" fill="#1A1A1A" transform="matrix(0.9999999999999999, 0, 0, 0.9999999999999999, -2.842170943040401e-14, 0)"/>
<path d="M 289.79998779296875 384.70001220703125 L 267.5 397.6000061035156 L 265.29998779296875 396.29998779296875 L 287.70001220703125 383.3999938964844 Z" fill-rule="evenodd" clip-rule="evenodd" fill="#B3B3B3" transform="matrix(0.9999999999999999, 0, 0, 0.9999999999999999, -2.842170943040401e-14, 0)"/><path d="M 289 493.3999938964844 L 267 506.29998779296875 L 267 397.6000061035156 L 289 384.70001220703125 Z" fill-rule="evenodd" clip-rule="evenodd" fill="#E6E6E6" transform="matrix(0.9999999999999999, 0, 0, 0.9999999999999999, -2.842170943040401e-14, 0)"/><path d="M 267 506.29998779296875 L 267 397.6000061035156 L 265.1000061035156 396.29998779296875 L 265 505.1000061035156 Z" fill-rule="evenodd" clip-rule="evenodd" fill="#808080" transform="matrix(0.9999999999999999, 0, 0, 0.9999999999999999, -2.842170943040401e-14, 0)"/><path d="M 285.20001220703125 467.79998779296875 L 279.79998779296875 470.8999938964844 L 275.5 468.5 L 281 465.29998779296875 Z" fill-rule="evenodd" clip-rule="evenodd" fill="#F9B955" transform="matrix(0.9999999999999999, 0, 0, 0.9999999999999999, -2.842170943040401e-14, 0)"/><path d="M 286 494.20001220703125 L 280 497.3999938964844 L 280 470.8999938964844 L 286 467.79998779296875 Z" fill-rule="evenodd" clip-rule="evenodd" fill="#FFD187" transform="matrix(0.9999999999999999, 0, 0, 0.9999999999999999, -2.842170943040401e-14, 0)"/><path d="M 280 497.3999938964844 L 280 470.8999938964844 L 276 468.5 L 276 494.8999938964844 Z" fill-rule="evenodd" clip-rule="evenodd" fill="#D49633" transform="matrix(0.9999999999999999, 0, 0, 0.9999999999999999, -2.842170943040401e-14, 0)"/><path fill="#83410F" d="M275,448.1c-0.1-0.2-0.2-0.3-0.4-0.3l-11-3.7l-4.5-6.9l11.4-12.3c0.1-0.1,0.2-0.2,0.2-0.4l1.9-15.1&#10;&#9;&#9;c0-0.1,0-0.2-0.1-0.3l-3.4-9.3c-0.3-0.7-1.5-0.3-1.2,0.4l3.4,9.2l-1.8,14.7l-11,11.9l-4.6-6.7l1.2-12.7c0,0,0-0.1,0-0.2l-0.4-6.1&#10;&#9;&#9;c-0.1-0.8-1.2-0.7-1.1,0.1l0.8,6.1l-1.5,12.9c0,0.1,0,0.3,0.1,0.4l9.7,15c0.1,0.1,0.2,0.2,0.3,0.3l11,3.7l1.8,3.5l-8.9,1.1&#10;&#9;&#9;l-10.4-3.5c-0.8-0.3-1.2,0.9-0.4,1.2l10.5,3.6c0.1,0,0.2,0,0.3,0l9.4-1.2l3.7,7.4l-0.2,7c0,0.4,0.2,0.6,0.6,0.6&#10;&#9;&#9;c0.4,0,0.6-0.2,0.6-0.6c0.1-4,0.3-8,0.4-12l2.4-8.9l2.5-3.4c0,0,0,0,0-0.1l6.4-8.7c0.1-0.1,0.1-0.2,0.1-0.4l0.7-6.2l4.7-3.8&#10;&#9;&#9;c0.1-0.1,0.1-0.1,0.1-0.2l5.1-6.7c0.5-0.7-0.5-1.4-1-0.8l-5,6.7l-3.7,3l0.7-6.4c0-0.2,0-0.3-0.1-0.5l-3.2-4.6l3-6.4&#10;&#9;&#9;c0-0.1,0.1-0.2,0.1-0.3l0.2-6.9c0-0.8-1.2-0.8-1.2,0l-0.2,6.8l-2.7,5.7l-4.2-6l1.2-8.8l6.1-6.1c0.6-0.6-0.3-1.4-0.9-0.9l-6.2,6.2&#10;&#9;&#9;c-0.1,0.1-0.2,0.2-0.2,0.4l-1.3,9.2c0,0.2,0,0.4,0.1,0.5c0,0,7.5,10.7,8.2,11.7l-1.6,14l-5.8,7.9l-4.7-7.8l2.9-8.9&#10;&#9;&#9;c0-0.1,0-0.2,0-0.4l-3.6-13.4c-0.2-0.8-1.4-0.5-1.2,0.3l3.5,13.2l-2.9,9c-0.1,0.2-0.1,0.4,0,0.5l5,8.5l-2.3,3.2&#10;&#9;&#9;c-0.1,0.1-0.1,0.1-0.1,0.2l-2.4,9c0,0,0,0.1,0,0.1l-0.1,2.5C279.7,457.6,275,448.1,275,448.1L275,448.1z" transform="matrix(0.9999999999999999, 0, 0, 0.9999999999999999, -2.842170943040401e-14, 0)"/><path fill-rule="evenodd" clip-rule="evenodd" fill="#006633" d="M266,411.3c2.4,0,3,2,2.9,2.9C268,414.5,266,414.7,266,411.3&#10;&#9;&#9;L266,411.3z" transform="matrix(0.9999999999999999, 0, 0, 0.9999999999999999, -2.842170943040401e-14, 0)"/><path fill-rule="evenodd" clip-rule="evenodd" fill="#006633" d="M286.8,403.4c4.2,0,5.4,3.5,5.1,5.1&#10;&#9;&#9;C290.4,409.2,286.8,409.5,286.8,403.4L286.8,403.4z" transform="matrix(0.9999999999999999, 0, 0, 0.9999999999999999, -2.842170943040401e-14, 0)"/><path fill-rule="evenodd" clip-rule="evenodd" fill="#006633" d="M288.3,431.4c-4.3,0-5.5,3.5-5.1,5.1&#10;&#9;&#9;C284.7,437.1,288.3,437.4,288.3,431.4L288.3,431.4z" transform="matrix(0.9999999999999999, 0, 0, 0.9999999999999999, -2.842170943040401e-14, 0)"/><path fill-rule="evenodd" clip-rule="evenodd" fill="#006633" d="M252.2,441.3c1.7-1.7,3.6-0.8,4.1,0&#10;&#9;&#9;C255.9,442.1,254.6,443.7,252.2,441.3L252.2,441.3z" transform="matrix(0.9999999999999999, 0, 0, 0.9999999999999999, -2.842170943040401e-14, 0)"/><path fill-rule="evenodd" clip-rule="evenodd" fill="#006633" d="M305.8,425.9c-2.9-3.2-6.3-1.6-7.2-0.3&#10;&#9;&#9;C299.1,427.1,301.3,430,305.8,425.9L305.8,425.9z" transform="matrix(0.9999999999999999, 0, 0, 0.9999999999999999, -2.842170943040401e-14, 0)"/><path fill-rule="evenodd" clip-rule="evenodd" fill="#006633" d="M273.1,442.8c2.2,0.9,2,3,1.5,3.7&#10;&#9;&#9;C273.7,446.5,271.8,445.9,273.1,442.8L273.1,442.8z" transform="matrix(0.9999999999999999, 0, 0, 0.9999999999999999, -2.842170943040401e-14, 0)"/><path fill-rule="evenodd" clip-rule="evenodd" fill="#006633" d="M251.7,412.9c2.2,0.9,2,3,1.5,3.8&#10;&#9;&#9;C252.3,416.6,250.3,416,251.7,412.9L251.7,412.9z" transform="matrix(0.9999999999999999, 0, 0, 0.9999999999999999, -2.842170943040401e-14, 0)"/><path fill-rule="evenodd" clip-rule="evenodd" fill="#99CC33" d="M251.7,429.8c4.3,0,5.5,3.5,5.1,5.1&#10;&#9;&#9;C255.3,435.6,251.7,435.9,251.7,429.8L251.7,429.8z" transform="matrix(0.9999999999999999, 0, 0, 0.9999999999999999, -2.842170943040401e-14, 0)"/><path fill-rule="evenodd" clip-rule="evenodd" fill="#99CC33" d="M274.6,418.6c-4.2,0-5.4,3.5-5.1,5.1&#10;&#9;&#9;C271.1,424.4,274.6,424.7,274.6,418.6L274.6,418.6z" transform="matrix(0.9999999999999999, 0, 0, 0.9999999999999999, -2.842170943040401e-14, 0)"/><path fill-rule="evenodd" clip-rule="evenodd" fill="#99CC33" d="M280.6,406.3c2.4,0,3.1,2,2.9,2.9&#10;&#9;&#9;C282.6,409.5,280.6,409.7,280.6,406.3L280.6,406.3z" transform="matrix(0.9999999999999999, 0, 0, 0.9999999999999999, -2.842170943040401e-14, 0)"/><path fill-rule="evenodd" clip-rule="evenodd" fill="#99CC33" d="M296.4,420.4c-2.4,0-3.1,2-2.9,2.9&#10;&#9;&#9;C294.4,423.6,296.4,423.8,296.4,420.4L296.4,420.4z" transform="matrix(0.9999999999999999, 0, 0, 0.9999999999999999, -2.842170943040401e-14, 0)"/><path fill-rule="evenodd" clip-rule="evenodd" fill="#99CC33" d="M284.2,438.5c-2.4,0-3.1,2-2.9,2.9&#10;&#9;&#9;C282.1,441.7,284.2,442,284.2,438.5L284.2,438.5z" transform="matrix(0.9999999999999999, 0, 0, 0.9999999999999999, -2.842170943040401e-14, 0)"/><path fill-rule="evenodd" clip-rule="evenodd" fill="#99CC33" d="M271.2,452.5c2.4,0,3.1,2,2.9,2.9&#10;&#9;&#9;C273.3,455.8,271.2,456,271.2,452.5L271.2,452.5z" transform="matrix(0.9999999999999999, 0, 0, 0.9999999999999999, -2.842170943040401e-14, 0)"/><path fill-rule="evenodd" clip-rule="evenodd" fill="#99CC33" d="M278.4,445.3c4.2-0.1,5.5,3.5,5.1,5.1&#10;&#9;&#9;C282,451,278.4,451.3,278.4,445.3L278.4,445.3z" transform="matrix(0.9999999999999999, 0, 0, 0.9999999999999999, -2.842170943040401e-14, 0)"/><path fill-rule="evenodd" clip-rule="evenodd" fill="#99CC33" d="M291,437.9c-2.4,0-3.1,2-2.9,2.9C289,441.2,291,441.4,291,437.9&#10;&#9;&#9;L291,437.9z" transform="matrix(0.9999999999999999, 0, 0, 0.9999999999999999, -2.842170943040401e-14, 0)"/><path fill-rule="evenodd" clip-rule="evenodd" fill="#006633" d="M271.5,431.6c-2.9-3.2-6.3-1.6-7.2-0.2&#10;&#9;&#9;C264.9,432.9,267,435.8,271.5,431.6L271.5,431.6z" transform="matrix(0.9999999999999999, 0, 0, 0.9999999999999999, -2.842170943040401e-14, 0)"/><path fill-rule="evenodd" clip-rule="evenodd" fill="#006633" d="M263.9,423.8c2.4,0,3.1,2,2.9,2.9&#10;&#9;&#9;C265.9,427,263.9,427.2,263.9,423.8L263.9,423.8z" transform="matrix(0.9999999999999999, 0, 0, 0.9999999999999999, -2.842170943040401e-14, 0)"/><path fill-rule="evenodd" clip-rule="evenodd" fill="#999933" d="M279.1,417.7c4.3,0,5.5,3.5,5.1,5.1&#10;&#9;&#9;C282.7,423.4,279.1,423.8,279.1,417.7L279.1,417.7z" transform="matrix(0.9999999999999999, 0, 0, 0.9999999999999999, -2.842170943040401e-14, 0)"/><path fill-rule="evenodd" clip-rule="evenodd" fill="#999933" d="M261,440.7c2.4,0,3.1,2,2.9,2.9C263,444,261,444.2,261,440.7&#10;&#9;&#9;L261,440.7z" transform="matrix(0.9999999999999999, 0, 0, 0.9999999999999999, -2.842170943040401e-14, 0)"/><path fill-rule="evenodd" clip-rule="evenodd" fill="#999933" d="M255,448.5c2.4,0,3.1,2,2.9,2.9C257,451.7,255,451.9,255,448.5&#10;&#9;&#9;L255,448.5z" transform="matrix(0.9999999999999999, 0, 0, 0.9999999999999999, -2.842170943040401e-14, 0)"/><path fill-rule="evenodd" clip-rule="evenodd" fill="#999933" d="M262.8,451.4c-2.4,0-3.1,2-2.9,2.9&#10;&#9;&#9;C260.7,454.7,262.8,454.8,262.8,451.4L262.8,451.4z" transform="matrix(0.9999999999999999, 0, 0, 0.9999999999999999, -2.842170943040401e-14, 0)"/><path fill-rule="evenodd" clip-rule="evenodd" fill="#999933" d="M278.3,430.4c2.4,0,3.1,2,2.9,2.9&#10;&#9;&#9;C280.3,433.6,278.3,433.8,278.3,430.4L278.3,430.4z" transform="matrix(0.9999999999999999, 0, 0, 0.9999999999999999, -2.842170943040401e-14, 0)"/><path fill-rule="evenodd" clip-rule="evenodd" fill="#999933" d="M248.7,422c4.2,0,5.5,3.5,5.1,5.1&#10;&#9;&#9;C252.2,427.7,248.7,428.1,248.7,422L248.7,422z" transform="matrix(0.9999999999999999, 0, 0, 0.9999999999999999, -2.842170943040401e-14, 0)"/><path fill-rule="evenodd" clip-rule="evenodd" fill="#006633" d="M258,419.5c-2.9,0.6-3.2,3.3-2.7,4.3&#10;&#9;&#9;C256.5,424,258.9,423.7,258,419.5L258,419.5z" transform="matrix(0.9999999999999999, 0, 0, 0.9999999999999999, -2.842170943040401e-14, 0)"/><path fill-rule="evenodd" clip-rule="evenodd" fill="#006633" d="M295.9,411.1c-2.9,0.6-3.2,3.3-2.7,4.3&#10;&#9;&#9;C294.3,415.6,296.8,415.3,295.9,411.1L295.9,411.1z" transform="matrix(0.9999999999999999, 0, 0, 0.9999999999999999, -2.842170943040401e-14, 0)"/><path fill-rule="evenodd" clip-rule="evenodd" fill="#006633" d="M289.7,392.3c-4.2,0-5.4,3.5-5.1,5.1&#10;&#9;&#9;C286.1,398.1,289.7,398.4,289.7,392.3L289.7,392.3z" transform="matrix(0.9999999999999999, 0, 0, 0.9999999999999999, -2.842170943040401e-14, 0)"/><path fill-rule="evenodd" clip-rule="evenodd" fill="#99CC33" d="M263.5,394.1c2.4,0,3.1,2,2.9,2.9&#10;&#9;&#9;C265.6,397.3,263.5,397.5,263.5,394.1L263.5,394.1z" transform="matrix(0.9999999999999999, 0, 0, 0.9999999999999999, -2.842170943040401e-14, 0)"/><path fill-rule="evenodd" clip-rule="evenodd" fill="#999933" d="M293.3,430.8c4.2,0,5.4,3.5,5.1,5.1&#10;&#9;&#9;C296.9,436.6,293.3,436.9,293.3,430.8L293.3,430.8z" transform="matrix(0.9999999999999999, 0, 0, 0.9999999999999999, -2.842170943040401e-14, 0)"/>
</svg>